<svg width="48" height="48" viewBox="0 0 48 48" fill="none" xmlns="http://www.w3.org/2000/svg">
<g id="account_circle">
<mask id="mask0_4689_21762" style="mask-type:alpha" maskUnits="userSpaceOnUse" x="0" y="0" width="48" height="48">
<rect id="Bounding box" width="48" height="48" fill="#D9D9D9"/>
</mask>
<g mask="url(#mask0_4689_21762)">
<path id="account_circle_2" d="M12.0462 34.5846C13.7462 33.3231 15.5981 32.3269 17.6019 31.5962C19.6057 30.8654 21.7384 30.5 24 30.5C26.2615 30.5 28.3942 30.8654 30.398 31.5962C32.4018 32.3269 34.2538 33.3231 35.9538 34.5846C37.1974 33.2179 38.1826 31.6359 38.9096 29.8385C39.6365 28.041 40 26.0948 40 24C40 19.5666 38.4416 15.7916 35.325 12.675C32.2083 9.55829 28.4333 7.99995 24 7.99995C19.5666 7.99995 15.7916 9.55829 12.675 12.675C9.55828 15.7916 7.99995 19.5666 7.99995 24C7.99995 26.0948 8.36342 28.041 9.09035 29.8385C9.81728 31.6359 10.8026 33.2179 12.0462 34.5846ZM24.0006 25.4999C22.1745 25.4999 20.6346 24.8732 19.3808 23.6198C18.1269 22.3663 17.5 20.8266 17.5 19.0006C17.5 17.1745 18.1267 15.6346 19.3802 14.3808C20.6336 13.1269 22.1734 12.5 23.9994 12.5C25.8254 12.5 27.3653 13.1267 28.6192 14.3802C29.873 15.6336 30.4999 17.1734 30.4999 18.9994C30.4999 20.8254 29.8732 22.3653 28.6198 23.6192C27.3663 24.873 25.8266 25.4999 24.0006 25.4999ZM24 42.9999C21.3615 42.9999 18.8865 42.5037 16.575 41.5114C14.2635 40.5191 12.2526 39.1678 10.5423 37.4576C8.83207 35.7473 7.4808 33.7364 6.4885 31.4249C5.49617 29.1134 5 26.6384 5 24C5 21.3615 5.49617 18.8865 6.4885 16.575C7.4808 14.2635 8.83207 12.2526 10.5423 10.5423C12.2526 8.83207 14.2635 7.4808 16.575 6.4885C18.8865 5.49617 21.3615 5 24 5C26.6384 5 29.1134 5.49617 31.4249 6.4885C33.7364 7.4808 35.7473 8.83207 37.4576 10.5423C39.1678 12.2526 40.5191 14.2635 41.5114 16.575C42.5037 18.8865 42.9999 21.3615 42.9999 24C42.9999 26.6384 42.5037 29.1134 41.5114 31.4249C40.5191 33.7364 39.1678 35.7473 37.4576 37.4576C35.7473 39.1678 33.7364 40.5191 31.4249 41.5114C29.1134 42.5037 26.6384 42.9999 24 42.9999ZM24 40C25.8051 40 27.5455 39.7096 29.2211 39.1288C30.8968 38.548 32.3846 37.7359 33.6846 36.6923C32.3846 35.6871 30.916 34.9038 29.2788 34.3423C27.6416 33.7807 25.882 33.4999 24 33.4999C22.1179 33.4999 20.3551 33.7775 18.7115 34.3326C17.0679 34.8877 15.6025 35.6743 14.3153 36.6923C15.6153 37.7359 17.1031 38.548 18.7788 39.1288C20.4544 39.7096 22.1948 40 24 40ZM24 22.5C24.9948 22.5 25.8269 22.1654 26.4962 21.4962C27.1654 20.8269 27.5 19.9948 27.5 19C27.5 18.0051 27.1654 17.173 26.4962 16.5038C25.8269 15.8345 24.9948 15.4999 24 15.4999C23.0051 15.4999 22.173 15.8345 21.5037 16.5038C20.8345 17.173 20.4999 18.0051 20.4999 19C20.4999 19.9948 20.8345 20.8269 21.5037 21.4962C22.173 22.1654 23.0051 22.5 24 22.5Z" fill="#47536F"/>
</g>
</g>
</svg>
