<svg width="9" height="18" viewBox="0 0 9 18" fill="none" xmlns="http://www.w3.org/2000/svg">
<path id="arrow_menu_close" d="M4.03444 12.525L1.18069 9.63275C1.00636 9.45192 0.919189 9.241 0.919189 9C0.919189 8.759 1.00636 8.54808 1.18069 8.36725L4.03444 5.475C4.18194 5.32117 4.34769 5.28258 4.53169 5.35925C4.71569 5.43592 4.80769 5.58158 4.80769 5.79625V12.2135C4.80769 12.4243 4.71569 12.5674 4.53169 12.6427C4.34769 12.7181 4.18194 12.6788 4.03444 12.525ZM6.99994 16.75V1.25C6.99994 1.0375 7.07186 0.859417 7.21569 0.71575C7.35952 0.571917 7.53769 0.5 7.75019 0.5C7.96286 0.5 8.14094 0.571917 8.28444 0.71575C8.42811 0.859417 8.49994 1.0375 8.49994 1.25V16.75C8.49994 16.9625 8.42802 17.1406 8.28419 17.2843C8.14036 17.4281 7.96219 17.5 7.74969 17.5C7.53702 17.5 7.35894 17.4281 7.21544 17.2843C7.07177 17.1406 6.99994 16.9625 6.99994 16.75Z" fill="#47536F"/>
</svg>
