<svg width="24" height="25" viewBox="0 0 24 25" fill="none" xmlns="http://www.w3.org/2000/svg">
<g id="article">
<mask id="mask0_5689_18893" style="mask-type:alpha" maskUnits="userSpaceOnUse" x="0" y="0" width="24" height="25">
<rect id="Bounding box" y="0.5" width="24" height="24" fill="#D9D9D9"/>
</mask>
<g mask="url(#mask0_5689_18893)">
<path id="article_2" d="M5.3077 21C4.80257 21 4.375 20.825 4.025 20.475C3.675 20.125 3.5 19.6974 3.5 19.1923V5.8077C3.5 5.30257 3.675 4.875 4.025 4.525C4.375 4.175 4.80257 4 5.3077 4H18.6923C19.1974 4 19.625 4.175 19.975 4.525C20.325 4.875 20.5 5.30257 20.5 5.8077V19.1923C20.5 19.6974 20.325 20.125 19.975 20.475C19.625 20.825 19.1974 21 18.6923 21H5.3077ZM5.3077 19.5H18.6923C18.7692 19.5 18.8397 19.4679 18.9038 19.4038C18.9679 19.3397 19 19.2692 19 19.1923V5.8077C19 5.73077 18.9679 5.66024 18.9038 5.59613C18.8397 5.53203 18.7692 5.49998 18.6923 5.49998H5.3077C5.23077 5.49998 5.16024 5.53203 5.09612 5.59613C5.03202 5.66024 4.99997 5.73077 4.99997 5.8077V19.1923C4.99997 19.2692 5.03202 19.3397 5.09612 19.4038C5.16024 19.4679 5.23077 19.5 5.3077 19.5ZM7.99998 17.25H13C13.2128 17.25 13.391 17.1782 13.5346 17.0346C13.6782 16.891 13.75 16.7128 13.75 16.5C13.75 16.2872 13.6782 16.109 13.5346 15.9654C13.391 15.8218 13.2128 15.75 13 15.75H7.99998C7.78716 15.75 7.60896 15.8218 7.46538 15.9654C7.32179 16.109 7.25 16.2872 7.25 16.5C7.25 16.7128 7.32179 16.891 7.46538 17.0346C7.60896 17.1782 7.78716 17.25 7.99998 17.25ZM7.99998 13.25H16C16.2128 13.25 16.391 13.1782 16.5346 13.0346C16.6782 12.891 16.75 12.7128 16.75 12.5C16.75 12.2872 16.6782 12.109 16.5346 11.9654C16.391 11.8218 16.2128 11.75 16 11.75H7.99998C7.78716 11.75 7.60896 11.8218 7.46538 11.9654C7.32179 12.109 7.25 12.2872 7.25 12.5C7.25 12.7128 7.32179 12.891 7.46538 13.0346C7.60896 13.1782 7.78716 13.25 7.99998 13.25ZM7.99998 9.24995H16C16.2128 9.24995 16.391 9.17816 16.5346 9.03458C16.6782 8.89099 16.75 8.71279 16.75 8.49998C16.75 8.28716 16.6782 8.10896 16.5346 7.96538C16.391 7.82179 16.2128 7.75 16 7.75H7.99998C7.78716 7.75 7.60896 7.82179 7.46538 7.96538C7.32179 8.10896 7.25 8.28716 7.25 8.49998C7.25 8.71279 7.32179 8.89099 7.46538 9.03458C7.60896 9.17816 7.78716 9.24995 7.99998 9.24995Z" fill="#7B63D1"/>
</g>
</g>
</svg>
