<svg width="25" height="24" viewBox="0 0 25 24" fill="none" xmlns="http://www.w3.org/2000/svg">
<g id="calendar_month">
<mask id="mask0_5303_40158" style="mask-type:alpha" maskUnits="userSpaceOnUse" x="0" y="0" width="25" height="24">
<rect id="Bounding box" x="0.333984" width="24" height="24" fill="#1C2230"/>
</mask>
<g mask="url(#mask0_5303_40158)">
<path id="calendar_month_2" d="M5.64168 21.5001C5.13655 21.5001 4.70898 21.3251 4.35898 20.9751C4.00898 20.6251 3.83398 20.1975 3.83398 19.6924V6.30784C3.83398 5.80271 4.00898 5.37514 4.35898 5.02514C4.70898 4.67514 5.13655 4.50014 5.64168 4.50014H7.02631V3.15397C7.02631 2.93475 7.09971 2.75174 7.24651 2.60494C7.39329 2.45816 7.5763 2.38477 7.79553 2.38477C8.01475 2.38477 8.19776 2.45816 8.34456 2.60494C8.49134 2.75174 8.56473 2.93475 8.56473 3.15397V4.50014H16.1416V3.13474C16.1416 2.92192 16.2134 2.74372 16.357 2.60014C16.5006 2.45656 16.6788 2.38477 16.8916 2.38477C17.1044 2.38477 17.2826 2.45656 17.4262 2.60014C17.5698 2.74372 17.6416 2.92192 17.6416 3.13474V4.50014H19.0262C19.5314 4.50014 19.9589 4.67514 20.3089 5.02514C20.6589 5.37514 20.8339 5.80271 20.8339 6.30784V19.6924C20.8339 20.1975 20.6589 20.6251 20.3089 20.9751C19.9589 21.3251 19.5314 21.5001 19.0262 21.5001H5.64168ZM5.64168 20.0001H19.0262C19.1032 20.0001 19.1737 19.9681 19.2378 19.904C19.3019 19.8398 19.334 19.7693 19.334 19.6924V10.3078H5.33396V19.6924C5.33396 19.7693 5.36601 19.8398 5.43011 19.904C5.49423 19.9681 5.56475 20.0001 5.64168 20.0001ZM5.33396 8.80787H19.334V6.30784C19.334 6.23091 19.3019 6.16038 19.2378 6.09627C19.1737 6.03217 19.1032 6.00012 19.0262 6.00012H5.64168C5.56475 6.00012 5.49423 6.03217 5.43011 6.09627C5.36601 6.16038 5.33396 6.23091 5.33396 6.30784V8.80787ZM12.334 14.077C12.0891 14.077 11.8804 13.9908 11.708 13.8184C11.5356 13.646 11.4494 13.4373 11.4494 13.1924C11.4494 12.9476 11.5356 12.7389 11.708 12.5665C11.8804 12.3941 12.0891 12.3078 12.334 12.3078C12.5788 12.3078 12.7875 12.3941 12.9599 12.5665C13.1323 12.7389 13.2186 12.9476 13.2186 13.1924C13.2186 13.4373 13.1323 13.646 12.9599 13.8184C12.7875 13.9908 12.5788 14.077 12.334 14.077ZM8.33396 14.077C8.08909 14.077 7.88044 13.9908 7.70801 13.8184C7.53558 13.646 7.44936 13.4373 7.44936 13.1924C7.44936 12.9476 7.53558 12.7389 7.70801 12.5665C7.88044 12.3941 8.08909 12.3078 8.33396 12.3078C8.57883 12.3078 8.78748 12.3941 8.95991 12.5665C9.13234 12.7389 9.21856 12.9476 9.21856 13.1924C9.21856 13.4373 9.13234 13.646 8.95991 13.8184C8.78748 13.9908 8.57883 14.077 8.33396 14.077ZM16.334 14.077C16.0891 14.077 15.8804 13.9908 15.708 13.8184C15.5356 13.646 15.4494 13.4373 15.4494 13.1924C15.4494 12.9476 15.5356 12.7389 15.708 12.5665C15.8804 12.3941 16.0891 12.3078 16.334 12.3078C16.5788 12.3078 16.7875 12.3941 16.9599 12.5665C17.1323 12.7389 17.2186 12.9476 17.2186 13.1924C17.2186 13.4373 17.1323 13.646 16.9599 13.8184C16.7875 13.9908 16.5788 14.077 16.334 14.077ZM12.334 18.0001C12.0891 18.0001 11.8804 17.9139 11.708 17.7415C11.5356 17.569 11.4494 17.3604 11.4494 17.1155C11.4494 16.8706 11.5356 16.662 11.708 16.4896C11.8804 16.3171 12.0891 16.2309 12.334 16.2309C12.5788 16.2309 12.7875 16.3171 12.9599 16.4896C13.1323 16.662 13.2186 16.8706 13.2186 17.1155C13.2186 17.3604 13.1323 17.569 12.9599 17.7415C12.7875 17.9139 12.5788 18.0001 12.334 18.0001ZM8.33396 18.0001C8.08909 18.0001 7.88044 17.9139 7.70801 17.7415C7.53558 17.569 7.44936 17.3604 7.44936 17.1155C7.44936 16.8706 7.53558 16.662 7.70801 16.4896C7.88044 16.3171 8.08909 16.2309 8.33396 16.2309C8.57883 16.2309 8.78748 16.3171 8.95991 16.4896C9.13234 16.662 9.21856 16.8706 9.21856 17.1155C9.21856 17.3604 9.13234 17.569 8.95991 17.7415C8.78748 17.9139 8.57883 18.0001 8.33396 18.0001ZM16.334 18.0001C16.0891 18.0001 15.8804 17.9139 15.708 17.7415C15.5356 17.569 15.4494 17.3604 15.4494 17.1155C15.4494 16.8706 15.5356 16.662 15.708 16.4896C15.8804 16.3171 16.0891 16.2309 16.334 16.2309C16.5788 16.2309 16.7875 16.3171 16.9599 16.4896C17.1323 16.662 17.2186 16.8706 17.2186 17.1155C17.2186 17.3604 17.1323 17.569 16.9599 17.7415C16.7875 17.9139 16.5788 18.0001 16.334 18.0001Z" fill="#8B9AB3"/>
</g>
</g>
</svg>
