<svg width="80" height="80" viewBox="0 0 80 80" fill="none" xmlns="http://www.w3.org/2000/svg">
<g id="check_circle">
<mask id="mask0_4564_2752" style="mask-type:alpha" maskUnits="userSpaceOnUse" x="0" y="0" width="80" height="80">
<rect id="Bounding box" width="80" height="80" fill="#D9D9D9"/>
</mask>
<g mask="url(#mask0_4564_2752)">
<path id="check_circle_2" d="M35.2698 47.154L27.5262 39.4104C27.0647 38.9489 26.4845 38.7128 25.7858 38.7021C25.0871 38.6914 24.4963 38.9275 24.0134 39.4104C23.5305 39.8933 23.2891 40.4788 23.2891 41.1668C23.2891 41.8548 23.5305 42.4402 24.0134 42.9231L33.1608 52.0705C33.7634 52.6731 34.4664 52.9743 35.2698 52.9743C36.0732 52.9743 36.7762 52.6731 37.3787 52.0705L55.9236 33.5257C56.3851 33.0642 56.6212 32.4841 56.6319 31.7853C56.6426 31.0866 56.4065 30.4958 55.9236 30.0129C55.4407 29.53 54.8552 29.2886 54.1672 29.2886C53.4792 29.2886 52.8938 29.53 52.4109 30.0129L35.2698 47.154ZM40.0061 71.6667C35.6264 71.6667 31.5096 70.8356 27.6558 69.1733C23.802 67.5111 20.4497 65.2553 17.599 62.4058C14.7482 59.5563 12.4913 56.2055 10.8284 52.3534C9.16546 48.5014 8.33398 44.3854 8.33398 40.0057C8.33398 35.6259 9.1651 31.5091 10.8273 27.6553C12.4895 23.8015 14.7454 20.4492 17.5948 17.5985C20.4443 14.7477 23.7951 12.4909 27.6472 10.8279C31.4993 9.16497 35.6152 8.3335 39.995 8.3335C44.3748 8.3335 48.4915 9.16461 52.3453 10.8268C56.1992 12.4891 59.5514 14.7449 62.4022 17.5943C65.2529 20.4438 67.5098 23.7946 69.1727 27.6468C70.8357 31.4988 71.6672 35.6147 71.6672 39.9945C71.6672 44.3743 70.836 48.4911 69.1738 52.3448C67.5116 56.1987 65.2558 59.5509 62.4063 62.4017C59.5568 65.2524 56.206 67.5093 52.3539 69.1723C48.5018 70.8352 44.3859 71.6667 40.0061 71.6667ZM40.0006 66.6668C47.445 66.6668 53.7506 64.0834 58.9172 58.9168C64.0839 53.7501 66.6672 47.4445 66.6672 40.0001C66.6672 32.5556 64.0839 26.2501 58.9172 21.0834C53.7506 15.9167 47.445 13.3334 40.0006 13.3334C32.5561 13.3334 26.2506 15.9167 21.0839 21.0834C15.9172 26.2501 13.3339 32.5556 13.3339 40.0001C13.3339 47.4445 15.9172 53.7501 21.0839 58.9168C26.2506 64.0834 32.5561 66.6668 40.0006 66.6668Z" fill="#1B9C80"/>
</g>
</g>
</svg>
