<svg width="16" height="17" viewBox="0 0 16 17" fill="none" xmlns="http://www.w3.org/2000/svg">
<g id="check">
<mask id="mask0_82_1463" style="mask-type:alpha" maskUnits="userSpaceOnUse" x="0" y="0" width="16" height="17">
<rect id="Bounding box" y="0.5" width="16" height="16" fill="#D9D9D9"/>
</mask>
<g mask="url(#mask0_82_1463)">
<path id="check_2" d="M6.36664 10.6L12.0166 4.95C12.15 4.81667 12.3083 4.75 12.4916 4.75C12.675 4.75 12.8333 4.81667 12.9666 4.95C13.1 5.08333 13.1666 5.24167 13.1666 5.425C13.1666 5.60833 13.1 5.76667 12.9666 5.9L6.83331 12.0333C6.69998 12.1667 6.54442 12.2333 6.36664 12.2333C6.18886 12.2333 6.03331 12.1667 5.89998 12.0333L3.03331 9.16667C2.89998 9.03333 2.83609 8.875 2.84164 8.69167C2.8472 8.50833 2.91664 8.35 3.04998 8.21667C3.18331 8.08333 3.34164 8.01667 3.52498 8.01667C3.70831 8.01667 3.86664 8.08333 3.99998 8.21667L6.36664 10.6Z" fill="white"/>
</g>
</g>
</svg>
