<svg width="24" height="24" viewBox="0 0 24 24" fill="none" xmlns="http://www.w3.org/2000/svg">
<g id="close_small">
<mask id="mask0_5085_4683" style="mask-type:alpha" maskUnits="userSpaceOnUse" x="0" y="0" width="24" height="24">
<rect id="Bounding box" width="24" height="24" fill="#D9D9D9"/>
</mask>
<g mask="url(#mask0_5085_4683)">
<path id="close_small_2" d="M11.9997 13.0634L8.75357 16.3096C8.6087 16.4545 8.43306 16.5253 8.22664 16.5221C8.02024 16.5189 7.84461 16.4448 7.69974 16.3C7.55488 16.1551 7.48244 15.9779 7.48244 15.7682C7.48244 15.5586 7.55488 15.3814 7.69974 15.2365L10.9363 12L7.69012 8.7788C7.54525 8.63393 7.47443 8.45669 7.47764 8.24707C7.48084 8.03746 7.55488 7.86021 7.69974 7.71535C7.84461 7.57048 8.02185 7.49805 8.23147 7.49805C8.44107 7.49805 8.6183 7.57048 8.76317 7.71535L11.9997 10.9615L15.2209 7.71535C15.3658 7.57048 15.5414 7.49805 15.7478 7.49805C15.9542 7.49805 16.1299 7.57048 16.2747 7.71535C16.4299 7.87048 16.5074 8.05029 16.5074 8.25477C16.5074 8.45926 16.4299 8.63393 16.2747 8.7788L13.0382 12L16.2844 15.2461C16.4292 15.391 16.5017 15.5667 16.5017 15.7731C16.5017 15.9795 16.4292 16.1551 16.2844 16.3C16.1292 16.4551 15.9494 16.5326 15.7449 16.5326C15.5405 16.5326 15.3658 16.4551 15.2209 16.3L11.9997 13.0634Z" fill="#C8D0DB"/>
</g>
</g>
</svg>
