<svg width="24" height="24" viewBox="0 0 24 24" fill="none" xmlns="http://www.w3.org/2000/svg">
<g id="credit_score">
<mask id="mask0_3671_12864" style="mask-type:alpha" maskUnits="userSpaceOnUse" x="0" y="0" width="24" height="24">
<rect id="Bounding box" width="24" height="24" fill="#D9D9D9"/>
</mask>
<g mask="url(#mask0_3671_12864)">
<path id="credit_score_2" d="M4 8.404H20V6.30775C20 6.23075 19.9679 6.16025 19.9038 6.09625C19.8398 6.03208 19.7693 6 19.6923 6H4.30775C4.23075 6 4.16025 6.03208 4.09625 6.09625C4.03208 6.16025 4 6.23075 4 6.30775V8.404ZM2.5 6.30775C2.5 5.80258 2.675 5.375 3.025 5.025C3.375 4.675 3.80258 4.5 4.30775 4.5H19.6923C20.1974 4.5 20.625 4.675 20.975 5.025C21.325 5.375 21.5 5.80258 21.5 6.30775V10.6923C21.5 10.9499 21.4138 11.165 21.2413 11.3375C21.0689 11.5098 20.8538 11.596 20.596 11.596H4V17.6923C4 17.7693 4.03208 17.8398 4.09625 17.9038C4.16025 17.9679 4.23075 18 4.30775 18H7.9365C8.14933 18 8.32758 18.0718 8.47125 18.2155C8.61475 18.359 8.6865 18.5372 8.6865 18.75C8.6865 18.9628 8.61475 19.141 8.47125 19.2845C8.32758 19.4282 8.14933 19.5 7.9365 19.5H4.30775C3.80258 19.5 3.375 19.325 3.025 18.975C2.675 18.625 2.5 18.1974 2.5 17.6923V6.30775ZM4 6.30775V18V14.4058V16.0365V6V6.30775ZM14.7962 20.9078C14.6821 20.9078 14.5715 20.8859 14.4645 20.8423C14.3573 20.7986 14.257 20.73 14.1635 20.6365L11.4192 17.8923C11.2807 17.7538 11.2073 17.5823 11.199 17.3778C11.1907 17.1734 11.2641 16.9937 11.4192 16.8385C11.5641 16.6937 11.7372 16.6213 11.9385 16.6213C12.1397 16.6213 12.3178 16.6937 12.473 16.8385L14.7962 19.1308L19.923 14.0038C20.0718 13.8551 20.2484 13.7818 20.4527 13.7838C20.6572 13.7856 20.8371 13.8641 20.9923 14.0193C21.1371 14.1744 21.2121 14.35 21.2173 14.546C21.2224 14.7422 21.1474 14.9178 20.9923 15.073L15.4288 20.6365C15.3353 20.73 15.2366 20.7986 15.1328 20.8423C15.0289 20.8859 14.9167 20.9078 14.7962 20.9078Z" fill="#47536F"/>
</g>
</g>
</svg>
