<svg width="24" height="24" viewBox="0 0 24 24" fill="none" xmlns="http://www.w3.org/2000/svg">
<mask id="mask0_4285_41585" style="mask-type:alpha" maskUnits="userSpaceOnUse" x="0" y="0" width="24" height="24">
<rect width="24" height="24" fill="#D9D9D9"/>
</mask>
<g mask="url(#mask0_4285_41585)">
<path d="M12 10.4377L7.92689 14.5108C7.78844 14.6493 7.6144 14.7201 7.40479 14.7233C7.19519 14.7265 7.01795 14.6557 6.87309 14.5108C6.7282 14.366 6.65576 14.1903 6.65576 13.9839C6.65576 13.7775 6.7282 13.6019 6.87309 13.457L11.3673 8.96278C11.4609 8.8692 11.5596 8.80317 11.6635 8.76471C11.7673 8.72626 11.8795 8.70703 12 8.70703C12.1205 8.70703 12.2327 8.72626 12.3365 8.76471C12.4404 8.80317 12.5391 8.8692 12.6327 8.96278L17.1269 13.457C17.2654 13.5955 17.3362 13.7695 17.3394 13.9791C17.3426 14.1887 17.2718 14.366 17.1269 14.5108C16.982 14.6557 16.8064 14.7281 16.6 14.7281C16.3936 14.7281 16.218 14.6557 16.0731 14.5108L12 10.4377Z" fill="#47536F"/>
</g>
</svg>
