<svg xmlns="http://www.w3.org/2000/svg" width="100" height="25" viewBox="0 0 96 22" fill="white">
  <path d="M24.804 5.48929C24.938 5.48929 25.0554 5.53904 25.1559 5.63854C25.2677 5.73804 25.3235 5.85964 25.3235 6.00338V16.5838C25.3124 16.7275 25.2509 16.8491 25.1392 16.9486C25.0386 17.0481 24.9213 17.0978 24.7872 17.0978C24.6308 17.0978 24.5023 17.0481 24.4017 16.9486C24.3123 16.8491 24.2676 16.7275 24.2676 16.5838V6.00338C24.2676 5.85964 24.3179 5.73804 24.4185 5.63854C24.519 5.53904 24.6475 5.48929 24.804 5.48929ZM32.6648 5.48929C32.8212 5.48929 32.9442 5.53904 33.0335 5.63854C33.1341 5.73804 33.1844 5.85964 33.1844 6.00338V16.5838C33.1732 16.7275 33.1173 16.8491 33.0168 16.9486C32.9274 17.0481 32.8044 17.0978 32.648 17.0978C32.5028 17.0978 32.3799 17.0481 32.2793 16.9486C32.1787 16.8491 32.1284 16.7275 32.1284 16.5838V6.00338C32.1284 5.85964 32.1787 5.73804 32.2793 5.63854C32.391 5.53904 32.5195 5.48929 32.6648 5.48929ZM24.7202 10.68H32.6816L32.6648 11.6418H24.6531L24.7202 10.68ZM39.9513 17.2637C39.0906 17.2637 38.3309 17.0813 37.6717 16.7164C37.0125 16.3516 36.4984 15.843 36.1297 15.1907C35.761 14.5385 35.5766 13.7756 35.5766 12.9022C35.5766 11.9624 35.761 11.1609 36.1297 10.4976C36.5096 9.83421 36.9957 9.32562 37.5879 8.97186C38.1914 8.60702 38.8283 8.42459 39.4988 8.42459C39.9903 8.42459 40.465 8.51303 40.9234 8.68993C41.3927 8.85577 41.8059 9.11004 42.1637 9.45278C42.5325 9.78446 42.8228 10.1935 43.0353 10.68C43.2586 11.1664 43.3814 11.7303 43.404 12.3715C43.3927 12.5042 43.337 12.6203 43.2364 12.7198C43.1359 12.8082 43.0185 12.8524 42.8845 12.8524H36.1632L35.9621 11.9569H42.566L42.3481 12.1559V11.8242C42.3033 11.3046 42.1356 10.8624 41.8453 10.4976C41.5544 10.1327 41.2025 9.8563 40.7894 9.66837C40.3758 9.48044 39.9454 9.38645 39.4988 9.38645C39.1636 9.38645 38.817 9.45278 38.4596 9.58545C38.113 9.71812 37.7946 9.9282 37.5041 10.2156C37.2247 10.492 36.9957 10.8513 36.8169 11.2936C36.6381 11.7247 36.5487 12.2388 36.5487 12.8358C36.5487 13.4881 36.6828 14.0796 36.951 14.6103C37.2192 15.141 37.6047 15.5611 38.1076 15.8707C38.6213 16.1802 39.2306 16.335 39.9346 16.335C40.3255 16.335 40.6775 16.2797 40.9905 16.1692C41.303 16.0586 41.5771 15.9149 41.8118 15.738C42.0464 15.5501 42.2416 15.3566 42.3984 15.1576C42.5211 15.0581 42.6439 15.0083 42.7671 15.0083C42.8785 15.0083 42.9737 15.0525 43.0521 15.141C43.1413 15.2294 43.1862 15.3289 43.1862 15.4395C43.1862 15.5722 43.13 15.6882 43.0185 15.7877C42.6833 16.1857 42.2476 16.534 41.7112 16.8325C41.1749 17.1199 40.5882 17.2637 39.9513 17.2637ZM52.6447 8.6236C52.7901 8.6236 52.9074 8.67335 52.9967 8.77285C53.0972 8.87235 53.1475 8.99395 53.1475 9.13769V16.6003C53.1475 16.733 53.0972 16.8491 52.9967 16.9486C52.8961 17.0481 52.7788 17.0978 52.6447 17.0978C52.4993 17.0978 52.3765 17.0481 52.2759 16.9486C52.1867 16.8491 52.1419 16.733 52.1419 16.6003V14.6269L52.4268 14.4942C52.4268 14.8038 52.3376 15.1189 52.1586 15.4395C51.991 15.7601 51.7564 16.0586 51.4547 16.335C51.153 16.6114 50.7956 16.838 50.382 17.0149C49.9797 17.1808 49.5439 17.2637 49.0746 17.2637C48.315 17.2637 47.6332 17.0702 47.0298 16.6833C46.4378 16.2963 45.9685 15.7656 45.6219 15.0912C45.2867 14.4168 45.1191 13.6595 45.1191 12.8193C45.1191 11.9569 45.2921 11.1996 45.6387 10.5473C45.9852 9.88396 46.4545 9.36435 47.0466 8.98844C47.6386 8.61253 48.3091 8.42459 49.0579 8.42459C49.5385 8.42459 49.9851 8.50751 50.3987 8.67335C50.8232 8.83919 51.1919 9.06585 51.505 9.35328C51.818 9.64071 52.0581 9.97239 52.2257 10.3483C52.4046 10.7131 52.4938 11.0946 52.4938 11.4926L52.1419 11.2438V9.13769C52.1419 8.99395 52.1867 8.87235 52.2759 8.77285C52.3765 8.67335 52.4993 8.6236 52.6447 8.6236ZM49.1584 16.335C49.7505 16.335 50.276 16.1857 50.734 15.8872C51.1919 15.5777 51.5498 15.1576 51.8066 14.6269C52.0748 14.0851 52.2089 13.4826 52.2089 12.8193C52.2089 12.167 52.0748 11.581 51.8066 11.0614C51.5498 10.5418 51.1919 10.1272 50.734 9.81762C50.276 9.50805 49.7505 9.35328 49.1584 9.35328C48.5772 9.35328 48.0522 9.50253 47.5829 9.80104C47.125 10.0995 46.7616 10.5086 46.4935 11.0282C46.2366 11.5478 46.108 12.1448 46.108 12.8193C46.108 13.4826 46.2366 14.0851 46.4935 14.6269C46.7616 15.1576 47.125 15.5777 47.5829 15.8872C48.0409 16.1857 48.5664 16.335 49.1584 16.335ZM56.8926 16.6003C56.8926 16.733 56.8423 16.8491 56.7417 16.9486C56.6412 17.0481 56.5238 17.0978 56.3897 17.0978C56.2448 17.0978 56.1216 17.0481 56.021 16.9486C55.9318 16.8491 55.8869 16.733 55.8869 16.6003V5.32345C55.8869 5.19078 55.9372 5.0747 56.0378 4.97519C56.1383 4.87569 56.2557 4.82594 56.3897 4.82594C56.5352 4.82594 56.6525 4.87569 56.7417 4.97519C56.8423 5.0747 56.8926 5.19078 56.8926 5.32345V16.6003ZM59.1632 15.7546C59.0739 15.6219 59.0291 15.4947 59.0291 15.3731C59.0404 15.2405 59.1129 15.1355 59.247 15.0581C59.3367 14.9807 59.4373 14.9475 59.5487 14.9586C59.6719 14.9696 59.7833 15.0249 59.8839 15.1244C60.1856 15.5113 60.5489 15.8264 60.9733 16.0697C61.4091 16.3018 61.9233 16.4179 62.5153 16.4179C62.8284 16.4179 63.1355 16.3682 63.4372 16.2687C63.7502 16.1581 64.0071 15.9978 64.2082 15.7877C64.4093 15.5666 64.5099 15.2902 64.5099 14.9586C64.5099 14.6158 64.4093 14.3395 64.2082 14.1294C64.0071 13.9193 63.7448 13.7535 63.4204 13.6319C63.1079 13.5103 62.7727 13.4052 62.4148 13.3168C62.0352 13.2173 61.6665 13.1067 61.3086 12.9851C60.9512 12.8524 60.6327 12.6921 60.3532 12.5042C60.085 12.3052 59.8671 12.0675 59.6995 11.7911C59.5319 11.5147 59.4481 11.1775 59.4481 10.7795C59.4481 10.3151 59.5768 9.90605 59.8336 9.55228C60.0909 9.19851 60.437 8.92211 60.8728 8.7231C61.3199 8.5241 61.8227 8.42459 62.3813 8.42459C62.6608 8.42459 62.9625 8.46327 63.2863 8.54068C63.6107 8.60702 63.9292 8.7231 64.2417 8.88894C64.5547 9.05477 64.8343 9.28143 65.0798 9.56887C65.1803 9.66837 65.2306 9.78446 65.2306 9.91712C65.2306 10.0387 65.1749 10.1493 65.063 10.2488C64.9738 10.3151 64.8678 10.3483 64.7445 10.3483C64.6331 10.3483 64.538 10.3041 64.4596 10.2156C64.1914 9.91712 63.873 9.69046 63.5042 9.5357C63.1355 9.38094 62.7392 9.30353 62.3142 9.30353C61.9903 9.30353 61.6832 9.35879 61.3924 9.46937C61.1133 9.56887 60.8787 9.72363 60.6884 9.93371C60.4986 10.1438 60.4035 10.4201 60.4035 10.7629C60.4262 11.0835 60.5376 11.3433 60.7387 11.5423C60.9512 11.7413 61.2248 11.9072 61.56 12.0398C61.9065 12.1725 62.292 12.2941 62.7165 12.4047C63.0744 12.4931 63.415 12.5982 63.7389 12.7198C64.0741 12.8414 64.365 12.9962 64.6105 13.1841C64.8678 13.361 65.0689 13.5876 65.2138 13.864C65.3706 14.1404 65.4485 14.4887 65.4485 14.9088C65.4485 15.3952 65.309 15.8154 65.0295 16.1692C64.7613 16.5229 64.3985 16.7938 63.94 16.9818C63.4821 17.1697 62.9738 17.2637 62.4148 17.2637C61.8114 17.2637 61.2248 17.1476 60.6549 16.9154C60.0964 16.6833 59.599 16.2963 59.1632 15.7546ZM71.579 8.55727C72.3387 8.55727 73.0091 8.7452 73.5903 9.12111C74.1824 9.48595 74.6517 9.99453 74.9982 10.6468C75.3443 11.2881 75.5178 12.0288 75.5178 12.869C75.5178 13.7093 75.3443 14.4555 74.9982 15.1078C74.6517 15.7601 74.1824 16.2742 73.5903 16.6501C72.9978 17.026 72.3332 17.2139 71.5958 17.2139C71.2044 17.2139 70.8302 17.1587 70.4728 17.0481C70.1262 16.9265 69.8078 16.7662 69.5174 16.5672C69.2266 16.3682 68.9697 16.136 68.7464 15.8707C68.5226 15.5942 68.3442 15.2957 68.2101 14.9751L68.5118 14.7596V19.9171C68.5118 20.0497 68.4615 20.1658 68.3609 20.2653C68.2712 20.3648 68.1539 20.4146 68.009 20.4146C67.8635 20.4146 67.7408 20.3648 67.6402 20.2653C67.5505 20.1658 67.5061 20.0497 67.5061 19.9171V9.10453C67.5061 8.96078 67.5505 8.83919 67.6402 8.73968C67.7294 8.64018 67.8522 8.59043 68.009 8.59043C68.1539 8.59043 68.2712 8.64018 68.3609 8.73968C68.4615 8.83919 68.5118 8.96078 68.5118 9.10453V10.8956L68.2771 10.7629C68.3885 10.4201 68.5507 10.1161 68.7632 9.85079C68.9865 9.57438 69.2433 9.34221 69.5342 9.15428C69.8245 8.95527 70.143 8.80602 70.4896 8.70652C70.8356 8.60702 71.1989 8.55727 71.579 8.55727ZM71.4952 9.48595C70.8918 9.48595 70.3609 9.6352 69.9029 9.93371C69.4445 10.2211 69.0816 10.6191 68.8135 11.1277C68.5561 11.6252 68.428 12.2057 68.428 12.869C68.428 13.5213 68.5561 14.1073 68.8135 14.6269C69.0816 15.1465 69.4445 15.5556 69.9029 15.8541C70.3609 16.1415 70.8918 16.2852 71.4952 16.2852C72.0873 16.2852 72.6068 16.1415 73.054 15.8541C73.5119 15.5556 73.8752 15.1465 74.1434 14.6269C74.4116 14.1073 74.5457 13.5213 74.5457 12.869C74.5457 12.2167 74.4116 11.6363 74.1434 11.1277C73.8752 10.6191 73.5119 10.2211 73.054 9.93371C72.6068 9.6352 72.0873 9.48595 71.4952 9.48595ZM84.6934 8.6236C84.8388 8.6236 84.9561 8.67335 85.0453 8.77285C85.1459 8.87235 85.1962 8.99395 85.1962 9.13769V16.6003C85.1962 16.733 85.1459 16.8491 85.0453 16.9486C84.9448 17.0481 84.8275 17.0978 84.6934 17.0978C84.548 17.0978 84.4252 17.0481 84.3246 16.9486C84.2354 16.8491 84.1906 16.733 84.1906 16.6003V14.6269L84.4755 14.4942C84.4755 14.8038 84.3863 15.1189 84.2073 15.4395C84.0397 15.7601 83.8051 16.0586 83.5034 16.335C83.2017 16.6114 82.8443 16.838 82.4307 17.0149C82.0284 17.1808 81.5926 17.2637 81.1233 17.2637C80.3637 17.2637 79.6819 17.0702 79.0785 16.6833C78.4865 16.2963 78.0171 15.7656 77.6706 15.0912C77.3354 14.4168 77.1678 13.6595 77.1678 12.8193C77.1678 11.9569 77.3408 11.1996 77.6873 10.5473C78.0339 9.88396 78.5032 9.36435 79.0953 8.98844C79.6873 8.61253 80.3577 8.42459 81.1066 8.42459C81.5872 8.42459 82.0338 8.50751 82.4474 8.67335C82.8719 8.83919 83.2406 9.06585 83.5536 9.35328C83.8667 9.64071 84.1067 9.97239 84.2744 10.3483C84.4533 10.7131 84.5425 11.0946 84.5425 11.4926L84.1906 11.2438V9.13769C84.1906 8.99395 84.2354 8.87235 84.3246 8.77285C84.4252 8.67335 84.548 8.6236 84.6934 8.6236ZM81.2071 16.335C81.7992 16.335 82.3247 16.1857 82.7826 15.8872C83.2406 15.5777 83.5985 15.1576 83.8553 14.6269C84.1235 14.0851 84.2576 13.4826 84.2576 12.8193C84.2576 12.167 84.1235 11.581 83.8553 11.0614C83.5985 10.5418 83.2406 10.1272 82.7826 9.81762C82.3247 9.50805 81.7992 9.35328 81.2071 9.35328C80.6259 9.35328 80.1009 9.50253 79.6316 9.80104C79.1736 10.0995 78.8103 10.5086 78.5422 11.0282C78.2853 11.5478 78.1566 12.1448 78.1566 12.8193C78.1566 13.4826 78.2853 14.0851 78.5422 14.6269C78.8103 15.1576 79.1736 15.5777 79.6316 15.8872C80.0896 16.1857 80.6151 16.335 81.2071 16.335ZM91.8744 8.42459C92.6119 8.42459 93.1985 8.57385 93.6343 8.87235C94.0814 9.15979 94.3999 9.5578 94.5897 10.0664C94.7908 10.5639 94.8914 11.1167 94.8914 11.7247V16.6003C94.8914 16.733 94.8411 16.8491 94.7405 16.9486C94.64 17.0481 94.5226 17.0978 94.3885 17.0978C94.2323 17.0978 94.109 17.0481 94.0198 16.9486C93.9306 16.8491 93.8857 16.733 93.8857 16.6003V11.7745C93.8857 11.3322 93.8132 10.9287 93.6678 10.5639C93.5224 10.199 93.2823 9.90605 92.9471 9.68495C92.6232 9.46385 92.1929 9.35328 91.6565 9.35328C91.1759 9.35328 90.7179 9.46385 90.2821 9.68495C89.8577 9.90605 89.5111 10.199 89.243 10.5639C88.9748 10.9287 88.8407 11.3322 88.8407 11.7745V16.6003C88.8407 16.733 88.7904 16.8491 88.6898 16.9486C88.5893 17.0481 88.472 17.0978 88.3379 17.0978C88.1816 17.0978 88.0584 17.0481 87.9691 16.9486C87.8799 16.8491 87.8351 16.733 87.8351 16.6003V9.17086C87.8351 9.03819 87.8799 8.92211 87.9691 8.8226C88.0697 8.7231 88.1924 8.67335 88.3379 8.67335C88.4833 8.67335 88.6006 8.7231 88.6898 8.8226C88.7904 8.92211 88.8407 9.03819 88.8407 9.17086V10.5639L88.4552 11.1609C88.4774 10.8071 88.5893 10.4699 88.7904 10.1493C89.0029 9.81762 89.2711 9.52463 89.5949 9.27036C89.9188 9.00502 90.2767 8.80051 90.6676 8.65677C91.0699 8.502 91.4722 8.42459 91.8744 8.42459Z" fill="white"/>
  <path d="M25.1559 5.63854L25.0513 5.74207L25.054 5.7448L25.0569 5.74738L25.1559 5.63854ZM25.3235 16.5838L25.4709 16.595L25.4713 16.5894V16.5838L25.3235 16.5838ZM25.1392 16.9486L25.0401 16.8399L25.0372 16.8425L25.0345 16.8452L25.1392 16.9486ZM24.4017 16.9486L24.2911 17.0459L24.2939 17.0491L24.297 17.0521L24.4017 16.9486ZM33.0335 5.63854L32.9229 5.73582L32.9258 5.73904L32.9289 5.74207L33.0335 5.63854ZM33.1844 16.5838L33.3317 16.595L33.3322 16.5894V16.5838L33.1844 16.5838ZM33.0168 16.9486L32.9121 16.8452L32.909 16.8482L32.9062 16.8515L33.0168 16.9486ZM32.2793 5.63854L32.1803 5.52984L32.1774 5.53243L32.1746 5.53516L32.2793 5.63854ZM24.7202 10.68L24.7201 10.5337H24.582L24.5725 10.67L24.7202 10.68ZM32.6816 10.68L32.8293 10.6826L32.8319 10.5337H32.6815L32.6816 10.68ZM32.6648 11.6418L32.6647 11.7882H32.8101L32.8126 11.6444L32.6648 11.6418ZM24.6531 11.6418L24.5055 11.6319L24.4946 11.7882H24.653L24.6531 11.6418ZM24.8039 5.63569C24.8961 5.63569 24.9765 5.66817 25.0513 5.74207L25.2604 5.53516C25.134 5.41005 24.9798 5.34303 24.8039 5.34303V5.63569ZM25.0569 5.74738C25.1387 5.82025 25.1756 5.90283 25.1756 6.00345H25.4713C25.4713 5.81664 25.3965 5.65598 25.2548 5.52984L25.0569 5.74738ZM25.1756 6.00345V16.5838H25.4713V6.00345H25.1756ZM25.176 16.5726C25.1678 16.6776 25.1246 16.7646 25.0401 16.8399L25.238 17.0574C25.377 16.9337 25.4567 16.7776 25.4709 16.595L25.176 16.5726ZM25.0345 16.8452C24.9598 16.9191 24.8794 16.9516 24.7871 16.9516V17.2442C24.963 17.2442 25.1172 17.1772 25.2436 17.0521L25.0345 16.8452ZM24.7871 16.9516C24.6656 16.9516 24.5761 16.9144 24.5062 16.8452L24.297 17.0521C24.4282 17.182 24.5957 17.2442 24.7871 17.2442V16.9516ZM24.5121 16.8515C24.4488 16.781 24.4154 16.6948 24.4154 16.5838H24.1196C24.1196 16.7603 24.1756 16.9174 24.2911 17.0459L24.5121 16.8515ZM24.4154 16.5838V6.00345H24.1196V16.5838H24.4154ZM24.4154 6.00345C24.4154 5.89761 24.4508 5.81347 24.5229 5.74207L24.3138 5.53516C24.1848 5.66276 24.1196 5.82186 24.1196 6.00345H24.4154ZM24.5229 5.74207C24.5929 5.6729 24.6823 5.63569 24.8039 5.63569V5.34303C24.6125 5.34303 24.445 5.40532 24.3138 5.53516L24.5229 5.74207ZM32.6647 5.63569C32.7865 5.63569 32.8662 5.67276 32.9229 5.73582L33.144 5.5414C33.0219 5.40547 32.8558 5.34303 32.6647 5.34303V5.63569ZM32.9289 5.74207C33.001 5.81347 33.0364 5.89761 33.0364 6.00345H33.3322C33.3322 5.82186 33.267 5.66276 33.138 5.53516L32.9289 5.74207ZM33.0364 6.00345V16.5838H33.3322V6.00345H33.0364ZM33.0368 16.5726C33.0283 16.6825 32.987 16.771 32.9121 16.8452L33.1212 17.0521C33.2474 16.9273 33.3179 16.7727 33.3317 16.595L33.0368 16.5726ZM32.9062 16.8515C32.8495 16.9145 32.7697 16.9516 32.6479 16.9516V17.2442C32.8391 17.2442 33.0051 17.1818 33.1272 17.0459L32.9062 16.8515ZM32.6479 16.9516C32.541 16.9516 32.4559 16.9166 32.3838 16.8452L32.1746 17.0521C32.3036 17.1797 32.4644 17.2442 32.6479 17.2442V16.9516ZM32.3838 16.8452C32.3116 16.7738 32.2762 16.6897 32.2762 16.5838H31.9805C31.9805 16.7654 32.0457 16.9245 32.1746 17.0521L32.3838 16.8452ZM32.2762 16.5838V6.00345H31.9805V16.5838H32.2762ZM32.2762 6.00345C32.2762 5.89761 32.3116 5.81347 32.3838 5.74207L32.1746 5.53516C32.0457 5.66276 31.9805 5.82186 31.9805 6.00345H32.2762ZM32.3781 5.74738C32.4638 5.67115 32.5573 5.63569 32.6647 5.63569V5.34303C32.4815 5.34303 32.3181 5.40708 32.1803 5.52984L32.3781 5.74738ZM24.7201 10.8264H32.6815V10.5337H24.7201V10.8264ZM32.5336 10.6775L32.5168 11.6394L32.8126 11.6444L32.8293 10.6826L32.5336 10.6775ZM32.6647 11.4956H24.653V11.7882H32.6647V11.4956ZM24.8006 11.6519L24.8676 10.6901L24.5725 10.67L24.5055 11.6319L24.8006 11.6519ZM36.1297 10.4976L36.0009 10.4255L36 10.4271L36.1297 10.4976ZM40.9234 8.68993L40.8696 8.82638L40.8736 8.8278L40.9234 8.68993ZM42.1637 9.45278L42.0606 9.55801L42.0641 9.56114L42.1637 9.45278ZM43.0353 10.68L42.8992 10.7381L42.9006 10.7406L43.0353 10.68ZM43.404 12.3715L43.5514 12.3837L43.5518 12.3751V12.3666L43.404 12.3715ZM43.2364 12.7198L43.3344 12.8292L43.3379 12.8264L43.3409 12.8233L43.2364 12.7198ZM36.1632 12.8524L36.0187 12.8843L36.0445 12.9988H36.1631L36.1632 12.8524ZM35.9621 11.9569L35.962 11.8107H35.7776L35.8176 11.9887L35.9621 11.9569ZM42.566 11.9569L42.666 12.0645L42.944 11.8107H42.5659L42.566 11.9569ZM42.3481 12.1559L42.2001 12.156V12.4902L42.4481 12.2635L42.3481 12.1559ZM42.3481 11.8242L42.4959 11.8243V11.8181L42.4954 11.8119L42.3481 11.8242ZM38.4596 9.58545L38.4073 9.44851L38.4058 9.44905L38.4596 9.58545ZM36.8169 11.2936L36.9536 11.3492L36.9541 11.348L36.8169 11.2936ZM38.1076 15.8707L38.0291 15.995L38.0306 15.9957L38.1076 15.8707ZM41.8118 15.738L41.9014 15.8545L41.9044 15.8518L41.8118 15.738ZM42.3984 15.1576L42.3046 15.0444L42.2918 15.0548L42.2815 15.0678L42.3984 15.1576ZM43.0521 15.141L42.9406 15.2374L42.944 15.2411L42.9475 15.2445L43.0521 15.141ZM43.0185 15.7877L42.9194 15.679L42.9115 15.6861L42.9046 15.6941L43.0185 15.7877ZM41.7112 16.8325L41.7816 16.9613L41.7836 16.9601L41.7112 16.8325ZM39.9512 17.1174C39.1122 17.1174 38.3782 16.9398 37.7438 16.5888L37.5994 16.8442C38.2835 17.2229 39.0688 17.4101 39.9512 17.4101V17.1174ZM37.7438 16.5888C37.1084 16.2371 36.6141 15.7481 36.2587 15.1194L36.0005 15.2622C36.3826 15.9381 36.9163 16.4662 37.5994 16.8442L37.7438 16.5888ZM36.2587 15.1194C35.9042 14.4923 35.7244 13.7549 35.7244 12.9023H35.4286C35.4286 13.7964 35.6175 14.5847 36.0005 15.2622L36.2587 15.1194ZM35.7244 12.9023C35.7244 11.9813 35.905 11.2053 36.2592 10.5682L36 10.4271C35.6167 11.1167 35.4286 11.9437 35.4286 12.9023H35.7244ZM36.2583 10.5698C36.6271 9.92573 37.0962 9.43656 37.6643 9.09719L37.5113 8.84667C36.895 9.21488 36.3919 9.74282 36.0009 10.4255L36.2583 10.5698ZM37.6643 9.09719C38.2459 8.74556 38.8568 8.571 39.4987 8.571V8.27834C38.7992 8.27834 38.1368 8.46861 37.5113 8.84667L37.6643 9.09719ZM39.4987 8.571C39.9719 8.571 40.4284 8.65611 40.8696 8.82638L40.9771 8.55368C40.5019 8.37018 40.0084 8.27834 39.4987 8.27834V8.571ZM40.8736 8.8278C41.3231 8.98661 41.718 9.2298 42.0606 9.55801L42.2662 9.34774C41.8935 8.99046 41.4622 8.72508 40.9731 8.55222L40.8736 8.8278ZM42.0641 9.56114C42.416 9.87779 42.6946 10.2693 42.8992 10.7381L43.1708 10.6221C42.9509 10.1179 42.6482 9.69127 42.2632 9.34457L42.0641 9.56114ZM42.9006 10.7406C43.1146 11.2064 43.2344 11.7508 43.2561 12.3766L43.5518 12.3666C43.5287 11.7099 43.4025 11.1265 43.1698 10.6195L42.9006 10.7406ZM43.2566 12.3594C43.2482 12.4555 43.2087 12.5398 43.1318 12.6164L43.3409 12.8233C43.4646 12.7009 43.5371 12.553 43.5514 12.3837L43.2566 12.3594ZM43.1378 12.6105C43.0643 12.6752 42.982 12.7062 42.8844 12.7062V12.9988C43.0544 12.9988 43.2068 12.9414 43.3344 12.8292L43.1378 12.6105ZM42.8844 12.7062H36.1631V12.9988H42.8844V12.7062ZM36.3075 12.8208L36.1064 11.9252L35.8176 11.9887L36.0187 12.8843L36.3075 12.8208ZM35.962 12.1033H42.5659V11.8107H35.962V12.1033ZM42.4653 11.8495L42.2475 12.0485L42.4481 12.2635L42.666 12.0645L42.4653 11.8495ZM42.4959 12.156V11.8243H42.2001V12.156H42.4959ZM42.4954 11.8119C42.4486 11.2674 42.2716 10.7971 41.961 10.407L41.7289 10.5882C41.9995 10.9279 42.1577 11.342 42.2006 11.8367L42.4954 11.8119ZM41.961 10.407C41.6569 10.0246 41.2862 9.73341 40.8509 9.53548L40.7271 9.8014C41.1191 9.97939 41.4523 10.2409 41.7289 10.5882L41.961 10.407ZM40.8509 9.53548C40.4186 9.33887 39.967 9.24019 39.4987 9.24019V9.53285C39.9236 9.53285 40.3328 9.62211 40.7271 9.8014L40.8509 9.53548ZM39.4987 9.24019C39.1433 9.24019 38.7794 9.31053 38.4073 9.44851L38.5113 9.72253C38.8544 9.59518 39.1832 9.53285 39.4987 9.53285V9.24019ZM38.4058 9.44905C38.0385 9.58982 37.703 9.81194 37.3994 10.1122L37.6085 10.3192C37.8861 10.0446 38.1874 9.84657 38.5127 9.722L38.4058 9.44905ZM37.3994 10.1122C37.1032 10.4053 36.8641 10.7826 36.6795 11.2393L36.9541 11.348C37.127 10.9202 37.3461 10.5788 37.6085 10.3192L37.3994 10.1122ZM36.68 11.2381C36.4921 11.6911 36.4007 12.225 36.4007 12.8359H36.6965C36.6965 12.2528 36.7839 11.7585 36.9536 11.3492L36.68 11.2381ZM36.4007 12.8359C36.4007 13.5086 36.5392 14.1229 36.8186 14.6758L37.0831 14.5449C36.8263 14.0365 36.6965 13.4678 36.6965 12.8359H36.4007ZM36.8186 14.6758C37.0988 15.2304 37.5029 15.6709 38.0291 15.995L38.1854 15.7465C37.7062 15.4514 37.3393 15.0517 37.0831 14.5449L36.8186 14.6758ZM38.0306 15.9957C38.5714 16.3215 39.2078 16.4814 39.9345 16.4814V16.1887C39.2527 16.1887 38.6715 16.0391 38.1844 15.7457L38.0306 15.9957ZM39.9345 16.4814C40.3392 16.4814 40.7084 16.4241 41.0402 16.307L40.9406 16.0314C40.6463 16.1354 40.3116 16.1887 39.9345 16.1887V16.4814ZM41.0402 16.307C41.3655 16.1921 41.6529 16.0416 41.9014 15.8545L41.722 15.6217C41.5006 15.7884 41.2408 15.9253 40.9406 16.0314L41.0402 16.307ZM41.9044 15.8518C42.1464 15.6581 42.3505 15.4568 42.5151 15.2475L42.2815 15.0678C42.1331 15.2565 41.9458 15.4422 41.7185 15.6243L41.9044 15.8518ZM42.492 15.2709C42.596 15.1864 42.6872 15.1547 42.767 15.1547V14.8621C42.6009 14.8621 42.4461 14.9299 42.3046 15.0444L42.492 15.2709ZM42.767 15.1547C42.8331 15.1547 42.8883 15.1785 42.9406 15.2374L43.1629 15.0447C43.0589 14.9268 42.9243 14.8621 42.767 14.8621V15.1547ZM42.9475 15.2445C43.013 15.3095 43.0382 15.373 43.0382 15.4396H43.334C43.334 15.285 43.2694 15.1495 43.1565 15.0376L42.9475 15.2445ZM43.0382 15.4396C43.0382 15.5254 43.0042 15.6035 42.9194 15.679L43.117 15.8966C43.2561 15.7731 43.334 15.619 43.334 15.4396H43.0382ZM42.9046 15.6941C42.5827 16.0763 42.1617 16.4137 41.6386 16.705L41.7836 16.9601C42.3327 16.6544 42.7833 16.2953 43.1318 15.8815L42.9046 15.6941ZM41.6406 16.7039C41.1269 16.9793 40.5645 17.1174 39.9512 17.1174V17.4101C40.6113 17.4101 41.2226 17.2608 41.7816 16.9613L41.6406 16.7039ZM52.9967 8.77285L52.8862 8.87014L52.8891 8.87335L52.8921 8.87638L52.9967 8.77285ZM52.2759 16.9486L52.1654 17.0459L52.1684 17.0491L52.1714 17.0521L52.2759 16.9486ZM52.1419 14.6269L52.0787 14.4946L51.9939 14.5341V14.627L52.1419 14.6269ZM52.4268 14.4942L52.5746 14.4943V14.2637L52.3636 14.3619L52.4268 14.4942ZM52.1586 15.4395L52.0289 15.3688L52.0274 15.3723L52.1586 15.4395ZM50.382 17.0149L50.4391 17.1501L50.4405 17.1493L50.382 17.0149ZM47.0298 16.6833L46.9484 16.8054L46.9494 16.8061L47.0298 16.6833ZM45.6219 15.0912L45.4892 15.1559L45.4902 15.1576L45.6219 15.0912ZM50.3987 8.67335L50.3429 8.80902L50.3444 8.80951L50.3987 8.67335ZM52.2257 10.3483L52.09 10.4075L52.0925 10.4122L52.2257 10.3483ZM52.4938 11.4926L52.408 11.6117L52.6416 11.777V11.4926L52.4938 11.4926ZM52.1419 11.2438L51.9939 11.2439V11.3192L52.056 11.363L52.1419 11.2438ZM52.2759 8.77285L52.1714 8.66947L52.1684 8.6725L52.1654 8.67572L52.2759 8.77285ZM50.734 15.8872L50.8152 16.0095L50.8172 16.0081L50.734 15.8872ZM51.8066 14.6269L51.6739 14.5626L51.6735 14.5637L51.8066 14.6269ZM51.8066 11.0614L51.6739 11.1258L51.6749 11.128L51.8066 11.0614ZM47.5829 9.80104L47.503 9.678L47.5015 9.67888L47.5829 9.80104ZM46.4935 11.0282L46.3617 10.9617L46.3608 10.964L46.4935 11.0282ZM46.4935 14.6269L46.3593 14.6891L46.3613 14.6924L46.4935 14.6269ZM47.5829 15.8872L47.4995 16.0082L47.5015 16.0095L47.5829 15.8872ZM52.6446 8.77C52.7516 8.77 52.827 8.80458 52.8862 8.87014L53.107 8.67572C52.9872 8.54227 52.8285 8.47735 52.6446 8.47735V8.77ZM52.8921 8.87638C52.964 8.94779 52.9995 9.03192 52.9995 9.13777H53.2953C53.2953 8.95617 53.2302 8.79707 53.1011 8.66947L52.8921 8.87638ZM52.9995 9.13777V16.6004H53.2953V9.13777H52.9995ZM52.9995 16.6004C52.9995 16.6917 52.967 16.7713 52.8921 16.8452L53.1011 17.0521C53.2278 16.9271 53.2953 16.7744 53.2953 16.6004H52.9995ZM52.8921 16.8452C52.8171 16.9191 52.7368 16.9516 52.6446 16.9516V17.2442C52.8206 17.2442 52.9749 17.1772 53.1011 17.0521L52.8921 16.8452ZM52.6446 16.9516C52.5376 16.9516 52.4528 16.9166 52.3804 16.8452L52.1714 17.0521C52.3005 17.1797 52.4612 17.2442 52.6446 17.2442V16.9516ZM52.3863 16.8515C52.3212 16.7786 52.2897 16.6971 52.2897 16.6004H51.9939C51.9939 16.7691 52.0521 16.9197 52.1654 17.0459L52.3863 16.8515ZM52.2897 16.6004V14.627H51.9939V16.6004H52.2897ZM52.2049 14.7593L52.4898 14.6267L52.3636 14.3619L52.0787 14.4946L52.2049 14.7593ZM52.2788 14.4943C52.2788 14.7749 52.198 15.0659 52.0289 15.3688L52.2882 15.5102C52.4765 15.1719 52.5746 14.8327 52.5746 14.4943H52.2788ZM52.0274 15.3723C51.8687 15.6761 51.6449 15.9614 51.354 16.2277L51.5551 16.4424C51.8677 16.156 52.1137 15.8442 52.2902 15.5068L52.0274 15.3723ZM51.354 16.2277C51.0656 16.4918 50.723 16.7098 50.3232 16.8807L50.4405 17.1493C50.868 16.9665 51.2401 16.7311 51.5551 16.4424L51.354 16.2277ZM50.3252 16.8799C49.9422 17.0378 49.5261 17.1174 49.0745 17.1174V17.4101C49.5621 17.4101 50.0171 17.3239 50.4391 17.1501L50.3252 16.8799ZM49.0745 17.1174C48.3415 17.1174 47.6883 16.9313 47.1101 16.5606L46.9494 16.8061C47.5779 17.2093 48.2878 17.4101 49.0745 17.4101V17.1174ZM47.1111 16.5612C46.5422 16.1893 46.0896 15.6786 45.7539 15.025L45.4902 15.1576C45.8471 15.8528 46.3332 16.4035 46.9484 16.8054L47.1111 16.5612ZM45.7544 15.0267C45.4305 14.3747 45.2669 13.6398 45.2669 12.8193H44.9711C44.9711 13.6793 45.1426 14.4591 45.4892 15.1559L45.7544 15.0267ZM45.2669 12.8193C45.2669 11.9766 45.436 11.2435 45.7697 10.6154L45.5079 10.4793C45.1486 11.1559 44.9711 11.9373 44.9711 12.8193H45.2669ZM45.7697 10.6154C46.1049 9.97319 46.5575 9.47271 47.1263 9.11167L46.9666 8.86535C46.3509 9.25609 45.8653 9.79487 45.5079 10.4793L45.7697 10.6154ZM47.1263 9.11167C47.6933 8.7519 48.3356 8.571 49.0578 8.571V8.27834C48.2828 8.27834 47.5843 8.47335 46.9666 8.86535L47.1263 9.11167ZM49.0578 8.571C49.5207 8.571 49.9486 8.65079 50.3429 8.80902L50.4544 8.53783C50.022 8.36438 49.5557 8.27834 49.0578 8.27834V8.571ZM50.3444 8.80951C50.7531 8.96915 51.1061 9.18635 51.4043 9.46056L51.6054 9.24614C51.2781 8.94544 50.8936 8.70937 50.4529 8.53734L50.3444 8.80951ZM51.4043 9.46056C51.703 9.73487 51.9308 10.0503 52.09 10.4075L52.3611 10.2893C52.1852 9.89466 51.9328 9.54675 51.6054 9.24614L51.4043 9.46056ZM52.0925 10.4122C52.2616 10.7576 52.3459 11.1172 52.3459 11.4926H52.6416C52.6416 11.0721 52.547 10.6689 52.3587 10.2845L52.0925 10.4122ZM52.5795 11.3736L52.2275 11.1248L52.056 11.363L52.408 11.6117L52.5795 11.3736ZM52.2897 11.2439V9.13777H51.9939V11.2439H52.2897ZM52.2897 9.13777C52.2897 9.0268 52.3232 8.94062 52.3863 8.87014L52.1654 8.67572C52.0501 8.80424 51.9939 8.9613 51.9939 9.13777H52.2897ZM52.3804 8.87638C52.4528 8.80497 52.5376 8.77 52.6446 8.77V8.47735C52.4612 8.47735 52.3005 8.54187 52.1714 8.66947L52.3804 8.87638ZM49.1583 16.4814C49.777 16.4814 50.3311 16.325 50.8152 16.0095L50.6525 15.7651C50.2207 16.0466 49.7243 16.1887 49.1583 16.1887V16.4814ZM50.8172 16.0081C51.2983 15.683 51.6725 15.2424 51.9401 14.6902L51.6735 14.5637C51.4265 15.0729 51.0858 15.4725 50.6505 15.7665L50.8172 16.0081ZM51.9397 14.6913C52.2187 14.1276 52.3567 13.5027 52.3567 12.8193H52.0609C52.0609 13.4626 51.9313 14.0428 51.6739 14.5626L51.9397 14.6913ZM52.3567 12.8193C52.3567 12.1467 52.2182 11.5375 51.9382 10.9949L51.6749 11.128C51.9313 11.6247 52.0609 12.1874 52.0609 12.8193H52.3567ZM51.9397 10.9971C51.672 10.4561 51.2978 10.0215 50.8172 9.69688L50.6505 9.93851C51.0863 10.233 51.4275 10.6277 51.6739 11.1258L51.9397 10.9971ZM50.8172 9.69688C50.3331 9.36955 49.7785 9.20703 49.1583 9.20703V9.49968C49.7228 9.49968 50.2187 9.64674 50.6505 9.93851L50.8172 9.69688ZM49.1583 9.20703C48.55 9.20703 47.9969 9.36369 47.503 9.678L47.6627 9.92422C48.1073 9.64152 48.6043 9.49968 49.1583 9.49968V9.20703ZM47.5015 9.67888C47.0204 9.99236 46.6408 10.4213 46.3617 10.9617L46.625 11.0948C46.8828 10.5961 47.2289 10.2069 47.6642 9.92334L47.5015 9.67888ZM46.3608 10.964C46.0921 11.5067 45.96 12.1263 45.96 12.8193H46.2558C46.2558 12.1636 46.3805 11.5892 46.6265 11.0926L46.3608 10.964ZM45.96 12.8193C45.96 13.5018 46.0921 14.1259 46.3593 14.6891L46.6275 14.5648C46.3805 14.0445 46.2558 13.4636 46.2558 12.8193H45.96ZM46.3613 14.6924C46.6398 15.2435 47.0189 15.6835 47.4995 16.0082L47.6661 15.7665C47.2309 15.4721 46.8838 15.0718 46.6255 14.5615L46.3613 14.6924ZM47.5015 16.0095C47.9856 16.325 48.5397 16.4814 49.1583 16.4814V16.1887C48.5929 16.1887 48.0965 16.0466 47.6642 15.7651L47.5015 16.0095ZM56.021 16.9486L55.9105 17.0459L55.9135 17.0491L55.9164 17.0521L56.021 16.9486ZM56.7417 4.97519L56.6312 5.07248L56.6342 5.07569L56.6371 5.07872L56.7417 4.97519ZM56.7446 16.6004C56.7446 16.6917 56.7121 16.7713 56.6371 16.8452L56.8461 17.0521C56.9728 16.9271 57.0404 16.7744 57.0404 16.6004H56.7446ZM56.6371 16.8452C56.5627 16.9191 56.4823 16.9516 56.3897 16.9516V17.2442C56.5656 17.2442 56.7199 17.1772 56.8461 17.0521L56.6371 16.8452ZM56.3897 16.9516C56.2827 16.9516 56.1979 16.9166 56.1254 16.8452L55.9164 17.0521C56.0456 17.1797 56.2063 17.2442 56.3897 17.2442V16.9516ZM56.1313 16.8515C56.0663 16.7786 56.0347 16.6971 56.0347 16.6004H55.7389C55.7389 16.7691 55.7971 16.9197 55.9105 17.0459L56.1313 16.8515ZM56.0347 16.6004V5.32352H55.7389V16.6004H56.0347ZM56.0347 5.32352C56.0347 5.23222 56.0677 5.15266 56.1422 5.07872L55.9332 4.87181C55.807 4.99687 55.7389 5.14949 55.7389 5.32352H56.0347ZM56.1422 5.07872C56.2171 5.00482 56.2975 4.97234 56.3897 4.97234V4.67969C56.2137 4.67969 56.0599 4.7467 55.9332 4.87181L56.1422 5.07872ZM56.3897 4.97234C56.4966 4.97234 56.5725 5.00692 56.6312 5.07248L56.8521 4.87806C56.7323 4.74461 56.5735 4.67969 56.3897 4.67969V4.97234ZM56.6371 5.07872C56.7121 5.15266 56.7446 5.23222 56.7446 5.32352H57.0404C57.0404 5.14949 56.9728 4.99687 56.8461 4.87181L56.6371 5.07872ZM56.7446 5.32352V16.6004H57.0404V5.32352H56.7446ZM59.1632 15.7546L59.0403 15.8358L59.0438 15.8409L59.0472 15.8458L59.1632 15.7546ZM59.0291 15.3731L58.8816 15.3611L58.8811 15.3671V15.3732L59.0291 15.3731ZM59.247 15.0581L59.3213 15.1845L59.3336 15.1775L59.3445 15.1683L59.247 15.0581ZM59.5487 14.9586L59.5338 15.1042L59.5353 15.1044L59.5487 14.9586ZM59.8839 15.1244L60.0011 15.0351L59.9952 15.0276L59.9883 15.021L59.8839 15.1244ZM60.9733 16.0697L60.8993 16.1965L60.9033 16.1986L60.9733 16.0697ZM63.4372 16.2687L63.4839 16.4076L63.4869 16.4065L63.4372 16.2687ZM64.2082 15.7877L64.3156 15.8885L64.318 15.8857L64.2082 15.7877ZM63.4204 13.6319L63.3661 13.7681L63.3681 13.7688L63.4204 13.6319ZM62.4148 13.3168L62.3767 13.4583L62.3787 13.4588L62.4148 13.3168ZM61.3086 12.9851L61.2567 13.1222L61.2607 13.1236L61.3086 12.9851ZM60.3532 12.5042L60.2644 12.6215L60.2703 12.6253L60.3532 12.5042ZM60.8728 8.7231L60.8121 8.58972L60.8106 8.59031L60.8728 8.7231ZM63.2863 8.54068L63.2517 8.68308L63.2562 8.68406L63.2863 8.54068ZM65.0798 9.56887L64.9668 9.66347L64.9707 9.6681L64.9751 9.67239L65.0798 9.56887ZM65.063 10.2488L65.1516 10.3659L65.1571 10.362L65.162 10.3576L65.063 10.2488ZM64.4596 10.2156L64.5709 10.1193L64.5699 10.1185L64.4596 10.2156ZM61.3924 9.46937L61.4426 9.60713L61.4455 9.60601L61.3924 9.46937ZM60.4035 10.7629L60.2555 10.763V10.768L60.256 10.773L60.4035 10.7629ZM60.7387 11.5423L60.6341 11.6459L60.6371 11.6486L60.7387 11.5423ZM61.56 12.0398L61.5052 12.1758L61.5066 12.1764L61.56 12.0398ZM62.7165 12.4047L62.6789 12.5462L62.6804 12.5467L62.7165 12.4047ZM63.7389 12.7198L63.6865 12.8567L63.688 12.8572L63.7389 12.7198ZM64.6105 13.1841L64.5201 13.3L64.5231 13.3022L64.5261 13.3043L64.6105 13.1841ZM65.2138 13.864L65.0826 13.9317L65.0846 13.9356L65.2138 13.864ZM65.0295 16.1692L64.913 16.0792L64.9111 16.0814L65.0295 16.1692ZM60.6549 16.9154L60.5976 17.0504L60.5986 17.0508L60.6549 16.9154ZM59.2863 15.6735C59.2079 15.5575 59.1769 15.4582 59.1769 15.3732H58.8811C58.8811 15.5315 58.9393 15.6865 59.0403 15.8358L59.2863 15.6735ZM59.1764 15.3854C59.1828 15.3081 59.2217 15.2421 59.3213 15.1845L59.1724 14.9318C59.0039 15.0289 58.8974 15.173 58.8816 15.3611L59.1764 15.3854ZM59.3445 15.1683C59.4051 15.1158 59.4653 15.0974 59.5338 15.1042L59.5634 14.813C59.4086 14.7977 59.2676 14.8457 59.1498 14.948L59.3445 15.1683ZM59.5353 15.1044C59.6186 15.1118 59.6994 15.1488 59.7793 15.2279L59.9883 15.021C59.8675 14.9012 59.7246 14.8275 59.5619 14.8129L59.5353 15.1044ZM59.767 15.2138C60.08 15.6158 60.4581 15.9437 60.8993 16.1965L61.0477 15.9431C60.6395 15.7095 60.291 15.4071 60.0011 15.0351L59.767 15.2138ZM60.9033 16.1986C61.3647 16.4443 61.9035 16.5643 62.5153 16.5643V16.2717C61.9429 16.2717 61.4539 16.1595 61.0433 15.9409L60.9033 16.1986ZM62.5153 16.5643C62.8446 16.5643 63.1674 16.512 63.4839 16.4076L63.3903 16.1299C63.1034 16.2245 62.812 16.2717 62.5153 16.2717V16.5643ZM63.4869 16.4065C63.8187 16.2893 64.0962 16.1174 64.3156 15.8885L64.1006 15.6872C63.9177 15.8784 63.6816 16.0271 63.3873 16.1309L63.4869 16.4065ZM64.318 15.8857C64.5468 15.6346 64.6577 15.322 64.6577 14.9586H64.3619C64.3619 15.2586 64.2722 15.4988 64.0982 15.6899L64.318 15.8857ZM64.6577 14.9586C64.6577 14.5858 64.5473 14.2709 64.3156 14.0288L64.1006 14.2301C64.2712 14.4081 64.3619 14.646 64.3619 14.9586H64.6577ZM64.3156 14.0288C64.0967 13.8001 63.8137 13.6231 63.4731 13.4951L63.3681 13.7688C63.6752 13.884 63.9177 14.0387 64.1006 14.2301L64.3156 14.0288ZM63.4746 13.4958C63.1551 13.3716 62.814 13.2647 62.4507 13.1749L62.3787 13.4588C62.7307 13.5458 63.0595 13.6491 63.3661 13.7681L63.4746 13.4958ZM62.4526 13.1754C62.076 13.0768 61.7107 12.9672 61.3568 12.8468L61.2607 13.1236C61.6215 13.2464 61.9937 13.3579 62.3767 13.4583L62.4526 13.1754ZM61.3607 12.8482C61.0127 12.7191 60.7046 12.5639 60.4364 12.3832L60.2703 12.6253C60.5602 12.8205 60.8895 12.986 61.2567 13.1222L61.3607 12.8482ZM60.4418 12.3872C60.1885 12.1992 59.9839 11.9756 59.8261 11.7159L59.5727 11.8664C59.7507 12.1596 59.9814 12.4114 60.2644 12.6215L60.4418 12.3872ZM59.8261 11.7159C59.6753 11.467 59.5959 11.1572 59.5959 10.7795H59.3001C59.3001 11.1979 59.3884 11.5625 59.5727 11.8664L59.8261 11.7159ZM59.5959 10.7795C59.5959 10.3437 59.7162 9.965 59.9538 9.63776L59.7137 9.46695C59.4372 9.8473 59.3001 10.2867 59.3001 10.7795H59.5959ZM59.9538 9.63776C60.1944 9.30633 60.5202 9.04543 60.9348 8.85604L60.8106 8.59031C60.3541 8.79892 59.9868 9.09084 59.7137 9.46695L59.9538 9.63776ZM60.9333 8.85662C61.3588 8.66723 61.8404 8.571 62.3812 8.571V8.27834C61.8044 8.27834 61.2809 8.38111 60.8121 8.58972L60.9333 8.85662ZM62.3812 8.571C62.6469 8.571 62.9367 8.60792 63.2517 8.68308L63.3213 8.39852C62.988 8.31892 62.6745 8.27834 62.3812 8.27834V8.571ZM63.2562 8.68406C63.5658 8.74732 63.8704 8.85833 64.1721 9.01797L64.3116 8.76005C63.9873 8.58802 63.6555 8.46686 63.3163 8.39745L63.2562 8.68406ZM64.1721 9.01797C64.4674 9.17449 64.7321 9.38906 64.9668 9.66347L65.1926 9.47441C64.9357 9.17391 64.6419 8.9352 64.3116 8.76005L64.1721 9.01797ZM64.9751 9.67239C65.0501 9.74634 65.0826 9.82589 65.0826 9.9172H65.3784C65.3784 9.74317 65.3109 9.59055 65.1842 9.46549L64.9751 9.67239ZM65.0826 9.9172C65.0826 9.98826 65.0521 10.0617 64.9643 10.1401L65.162 10.3576C65.2975 10.2371 65.3784 10.0893 65.3784 9.9172H65.0826ZM64.9742 10.1318C64.913 10.1772 64.8386 10.202 64.7444 10.202V10.4947C64.8963 10.4947 65.0343 10.4532 65.1516 10.3659L64.9742 10.1318ZM64.7444 10.202C64.6784 10.202 64.6232 10.1783 64.5709 10.1193L64.3481 10.3121C64.4526 10.43 64.5872 10.4947 64.7444 10.4947V10.202ZM64.5699 10.1185C64.2875 9.80389 63.9513 9.5644 63.5618 9.40106L63.4465 9.67049C63.795 9.81672 64.0952 10.0305 64.3491 10.3129L64.5699 10.1185ZM63.5618 9.40106C63.1739 9.23815 62.7573 9.15728 62.3141 9.15728V9.44993C62.7203 9.44993 63.097 9.52382 63.4465 9.67049L63.5618 9.40106ZM62.3141 9.15728C61.973 9.15728 61.6476 9.21561 61.3395 9.33287L61.4455 9.60601C61.7181 9.50217 62.0075 9.44993 62.3141 9.44993V9.15728ZM61.3425 9.33175C61.0408 9.43915 60.7854 9.60728 60.5784 9.83623L60.7987 10.0313C60.9713 9.84018 61.1852 9.69873 61.4426 9.60713L61.3425 9.33175ZM60.5784 9.83623C60.359 10.0786 60.2555 10.3924 60.2555 10.763H60.5513C60.5513 10.4481 60.638 10.2091 60.7987 10.0313L60.5784 9.83623ZM60.256 10.773C60.2801 11.1236 60.4044 11.4184 60.6341 11.6459L60.8431 11.4389C60.6711 11.2684 60.5715 11.0436 60.5508 10.7529L60.256 10.773ZM60.6371 11.6486C60.8658 11.8629 61.1566 12.0379 61.5052 12.1758L61.6151 11.9041C61.2932 11.7767 61.0364 11.6199 60.8406 11.4362L60.6371 11.6486ZM61.5066 12.1764C61.8591 12.3113 62.25 12.4345 62.6789 12.5462L62.7543 12.2632C62.3338 12.1538 61.9538 12.0338 61.6131 11.9034L61.5066 12.1764ZM62.6804 12.5467C63.0329 12.6338 63.3681 12.7372 63.6865 12.8567L63.7915 12.583C63.4617 12.4592 63.1152 12.3526 62.7524 12.2628L62.6804 12.5467ZM63.688 12.8572C64.0109 12.9744 64.288 13.1224 64.5201 13.3L64.7011 13.0684C64.4413 12.87 64.1371 12.7085 63.7896 12.5824L63.688 12.8572ZM64.5261 13.3043C64.7632 13.4676 64.9485 13.6762 65.0826 13.9317L65.3449 13.7966C65.1886 13.4993 64.9717 13.2546 64.6951 13.064L64.5261 13.3043ZM65.0846 13.9356C65.2256 14.1842 65.3005 14.5059 65.3005 14.9089H65.5963C65.5963 14.4716 65.5149 14.0968 65.3429 13.7926L65.0846 13.9356ZM65.3005 14.9089C65.3005 15.3656 65.1704 15.7533 64.913 16.0792L65.1462 16.2593C65.4474 15.8776 65.5963 15.4251 65.5963 14.9089H65.3005ZM64.9111 16.0814C64.6606 16.412 64.32 16.6676 63.8832 16.8467L63.9966 17.117C64.4763 16.9201 64.8623 16.634 65.1477 16.257L64.9111 16.0814ZM63.8832 16.8467C63.4455 17.0264 62.9565 17.1174 62.4147 17.1174V17.4101C62.9905 17.4101 63.5184 17.3132 63.9966 17.117L63.8832 16.8467ZM62.4147 17.1174C61.831 17.1174 61.2636 17.0052 60.711 16.7802L60.5986 17.0508C61.1857 17.2901 61.7916 17.4101 62.4147 17.4101V17.1174ZM60.712 16.7806C60.1796 16.5593 59.7014 16.189 59.2789 15.6635L59.0472 15.8458C59.4963 16.4037 60.013 16.8074 60.5976 17.0504L60.712 16.7806ZM73.5903 9.12111L73.5089 9.24371L73.5118 9.24541L73.5903 9.12111ZM70.4728 17.0481L70.4229 17.1862L70.4283 17.1878L70.4728 17.0481ZM68.7464 15.8707L68.6305 15.9621L68.6325 15.9644L68.7464 15.8707ZM68.2101 14.9751L68.1232 14.8566L68.0286 14.9243L68.073 15.0312L68.2101 14.9751ZM68.5118 14.7596L68.6596 14.7596V14.4735L68.4249 14.641L68.5118 14.7596ZM68.3609 20.2653L68.2563 20.1619L68.2529 20.165L68.2499 20.1682L68.3609 20.2653ZM67.6402 20.2653L67.5292 20.3626L67.5322 20.3658L67.5356 20.3689L67.6402 20.2653ZM68.3609 8.73968L68.2499 8.83697L68.2529 8.84019L68.2563 8.84321L68.3609 8.73968ZM68.5118 10.8956L68.4382 11.0227L68.6596 11.1478V10.8956L68.5118 10.8956ZM68.2771 10.7629L68.136 10.718L68.0991 10.8311L68.2036 10.89L68.2771 10.7629ZM69.5342 9.15428L69.6149 9.27687L69.6179 9.27468L69.5342 9.15428ZM69.9029 9.93371L69.9817 10.0574L69.9842 10.056L69.9029 9.93371ZM68.8135 11.1277L68.6823 11.0601L68.6818 11.0612L68.8135 11.1277ZM68.8135 14.6269L68.6803 14.6913L68.6818 14.6935L68.8135 14.6269ZM69.9029 15.8541L69.8215 15.9764L69.8235 15.9777L69.9029 15.8541ZM73.054 15.8541L73.1342 15.9768L73.1352 15.9764L73.054 15.8541ZM73.054 9.93371L72.9711 10.0551L72.9745 10.0574L73.054 9.93371ZM71.5789 8.70366C72.3125 8.70366 72.9538 8.88482 73.5089 9.24371L73.6711 8.99871C73.0637 8.60577 72.3647 8.41101 71.5789 8.41101V8.70366ZM73.5118 9.24541C74.0802 9.59557 74.5323 10.0841 74.867 10.7149L75.1288 10.5788C74.7714 9.9051 74.2843 9.37647 73.6681 8.99695L73.5118 9.24541ZM74.867 10.7149C75.2002 11.3318 75.3698 12.0491 75.3698 12.8691H75.6656C75.6656 12.0085 75.4886 11.2444 75.1288 10.5788L74.867 10.7149ZM75.3698 12.8691C75.3698 13.689 75.2007 14.4113 74.867 15.0398L75.1288 15.1759C75.4881 14.4999 75.6656 13.7297 75.6656 12.8691H75.3698ZM74.867 15.0398C74.5318 15.671 74.0797 16.1656 73.5104 16.527L73.6701 16.7733C74.2848 16.3829 74.7714 15.8493 75.1288 15.1759L74.867 15.0398ZM73.5104 16.527C72.943 16.887 72.306 17.0677 71.5957 17.0677V17.3603C72.3598 17.3603 73.0529 17.1651 73.6701 16.7733L73.5104 16.527ZM71.5957 17.0677C71.2186 17.0677 70.8592 17.0145 70.5166 16.9085L70.4283 17.1878C70.801 17.303 71.19 17.3603 71.5957 17.3603V17.0677ZM70.522 16.9103C70.1873 16.7928 69.8807 16.6383 69.6011 16.4469L69.433 16.6876C69.7347 16.8942 70.065 17.0604 70.4229 17.1862L70.522 16.9103ZM69.6011 16.4469C69.3216 16.2554 69.0747 16.0321 68.8597 15.777L68.6325 15.9644C68.8647 16.24 69.1318 16.4811 69.433 16.6876L69.6011 16.4469ZM68.8617 15.7793C68.6468 15.5135 68.4752 15.2269 68.3465 14.9193L68.073 15.0312C68.213 15.3648 68.3988 15.6752 68.6305 15.9621L68.8617 15.7793ZM68.2963 15.0938L68.598 14.8782L68.4249 14.641L68.1232 14.8566L68.2963 15.0938ZM68.3638 14.7596V19.9171H68.6596V14.7596H68.3638ZM68.3638 19.9171C68.3638 20.0085 68.3308 20.088 68.2563 20.1619L68.4653 20.3689C68.5915 20.2438 68.6596 20.0912 68.6596 19.9171H68.3638ZM68.2499 20.1682C68.1913 20.2337 68.1153 20.2683 68.0089 20.2683V20.561C68.1922 20.561 68.3515 20.4961 68.4713 20.3626L68.2499 20.1682ZM68.0089 20.2683C67.9019 20.2683 67.8166 20.2334 67.7446 20.1619L67.5356 20.3689C67.6643 20.4965 67.825 20.561 68.0089 20.561V20.2683ZM67.7505 20.1682C67.685 20.0954 67.6539 20.0138 67.6539 19.9171H67.3581C67.3581 20.0858 67.4163 20.2364 67.5292 20.3626L67.7505 20.1682ZM67.6539 19.9171V9.1046H67.3581V19.9171H67.6539ZM67.6539 9.1046C67.6539 8.99363 67.687 8.90745 67.7505 8.83697L67.5292 8.64255C67.4138 8.77107 67.3581 8.92813 67.3581 9.1046H67.6539ZM67.7505 8.83697C67.8072 8.7739 67.8871 8.73683 68.0089 8.73683V8.44418C67.8176 8.44418 67.6515 8.50661 67.5292 8.64255L67.7505 8.83697ZM68.0089 8.73683C68.1153 8.73683 68.1913 8.77141 68.2499 8.83697L68.4713 8.64255C68.3515 8.5091 68.1922 8.44418 68.0089 8.44418V8.73683ZM68.2563 8.84321C68.3283 8.91462 68.3638 8.99875 68.3638 9.1046H68.6596C68.6596 8.92301 68.594 8.7639 68.4653 8.63631L68.2563 8.84321ZM68.3638 9.1046V10.8956H68.6596V9.1046H68.3638ZM68.5851 10.7686L68.3505 10.6359L68.2036 10.89L68.4382 11.0227L68.5851 10.7686ZM68.4175 10.8079C68.5245 10.4807 68.6783 10.1924 68.8789 9.94168L68.6473 9.75946C68.4234 10.0394 68.2529 10.3597 68.136 10.718L68.4175 10.8079ZM68.8789 9.94168C69.0929 9.67703 69.3379 9.45607 69.6149 9.27687L69.4533 9.03187C69.1491 9.22858 68.8804 9.47134 68.6473 9.75946L68.8789 9.94168ZM69.6179 9.27468C69.8954 9.08484 70.1991 8.94232 70.5304 8.84711L70.4481 8.56607C70.0867 8.66986 69.7535 8.82585 69.4498 9.03402L69.6179 9.27468ZM70.5304 8.84711C70.8626 8.75166 71.2122 8.70366 71.5789 8.70366V8.41101C71.1855 8.41101 70.8084 8.46252 70.4481 8.56607L70.5304 8.84711ZM71.4951 9.3397C70.8656 9.3397 70.3061 9.49578 69.8215 9.81155L69.9842 10.056C70.4155 9.77477 70.9174 9.63235 71.4951 9.63235V9.3397ZM69.8235 9.81018C69.3418 10.1124 68.9613 10.5304 68.6823 11.0601L68.9445 11.1955C69.2013 10.7081 69.5474 10.3301 69.9817 10.0574L69.8235 9.81018ZM68.6818 11.0612C68.4121 11.5829 68.28 12.1869 68.28 12.8691H68.5758C68.5758 12.2246 68.7005 11.6677 68.945 11.1944L68.6818 11.0612ZM68.28 12.8691C68.28 13.5408 68.4121 14.1492 68.6803 14.6913L68.946 14.5626C68.7 14.0655 68.5758 13.502 68.5758 12.8691H68.28ZM68.6818 14.6935C68.9603 15.2339 69.3404 15.6629 69.8215 15.9764L69.9842 15.7319C69.5489 15.4484 69.2023 15.0592 68.945 14.5604L68.6818 14.6935ZM69.8235 15.9777C70.3081 16.2817 70.8666 16.4316 71.4951 16.4316V16.139C70.9164 16.139 70.4136 16.0015 69.9817 15.7306L69.8235 15.9777ZM71.4951 16.4316C72.1123 16.4316 72.661 16.2814 73.1342 15.9768L72.973 15.7315C72.553 16.0018 72.062 16.139 71.4951 16.139V16.4316ZM73.1352 15.9764C73.6163 15.6629 73.9959 15.2339 74.275 14.6935L74.0117 14.5604C73.7539 15.0592 73.4078 15.4479 72.973 15.7315L73.1352 15.9764ZM74.275 14.6935C74.555 14.151 74.6935 13.5418 74.6935 12.8691H74.3977C74.3977 13.501 74.268 14.0637 74.0117 14.5604L74.275 14.6935ZM74.6935 12.8691C74.6935 12.1965 74.555 11.5923 74.2745 11.0601L74.0122 11.1955C74.2676 11.6804 74.3977 12.2371 74.3977 12.8691H74.6935ZM74.2745 11.0601C73.9949 10.5304 73.6144 10.1124 73.1328 9.81018L72.9745 10.0574C73.4093 10.3301 73.7549 10.7081 74.0122 11.1955L74.2745 11.0601ZM73.1367 9.81248C72.6625 9.49607 72.1138 9.3397 71.4951 9.3397V9.63235C72.0605 9.63235 72.551 9.77453 72.9711 10.0551L73.1367 9.81248ZM85.0453 8.77285L84.9348 8.87014L84.9373 8.87335L84.9408 8.87638L85.0453 8.77285ZM84.3246 16.9486L84.2141 17.0459L84.2166 17.0491L84.22 17.0521L84.3246 16.9486ZM84.1906 14.6269L84.1274 14.4946L84.0426 14.5341V14.627L84.1906 14.6269ZM84.4755 14.4942L84.6233 14.4943V14.2637L84.4123 14.3619L84.4755 14.4942ZM84.2073 15.4395L84.0776 15.3688L84.0756 15.3723L84.2073 15.4395ZM82.4307 17.0149L82.4873 17.1501L82.4892 17.1493L82.4307 17.0149ZM79.0785 16.6833L78.9971 16.8054L78.9981 16.8061L79.0785 16.6833ZM77.6706 15.0912L77.5379 15.1559L77.5384 15.1576L77.6706 15.0912ZM82.4474 8.67335L82.3916 8.80902L82.3931 8.80951L82.4474 8.67335ZM84.2744 10.3483L84.1387 10.4075L84.1412 10.4122L84.2744 10.3483ZM84.5425 11.4926L84.4562 11.6117L84.6903 11.777V11.4926L84.5425 11.4926ZM84.1906 11.2438L84.0426 11.2439V11.3192L84.1042 11.363L84.1906 11.2438ZM84.3246 8.77285L84.22 8.66947L84.2166 8.6725L84.2141 8.67572L84.3246 8.77285ZM82.7826 15.8872L82.8639 16.0095L82.8659 16.0081L82.7826 15.8872ZM83.8553 14.6269L83.7221 14.5626L83.7216 14.5637L83.8553 14.6269ZM83.8553 11.0614L83.7221 11.1258L83.7236 11.128L83.8553 11.0614ZM79.6316 9.80104L79.5517 9.678L79.5502 9.67888L79.6316 9.80104ZM78.5422 11.0282L78.4104 10.9617L78.409 10.964L78.5422 11.0282ZM78.5422 14.6269L78.408 14.6891L78.4099 14.6924L78.5422 14.6269ZM79.6316 15.8872L79.5482 16.0082L79.5502 16.0095L79.6316 15.8872ZM84.6933 8.77C84.8003 8.77 84.8757 8.80458 84.9348 8.87014L85.1557 8.67572C85.0359 8.54227 84.8772 8.47735 84.6933 8.47735V8.77ZM84.9408 8.87638C85.0127 8.94779 85.0482 9.03192 85.0482 9.13777H85.344C85.344 8.95617 85.2789 8.79707 85.1498 8.66947L84.9408 8.87638ZM85.0482 9.13777V16.6004H85.344V9.13777H85.0482ZM85.0482 16.6004C85.0482 16.6917 85.0152 16.7713 84.9408 16.8452L85.1498 17.0521C85.276 16.9271 85.344 16.7744 85.344 16.6004H85.0482ZM84.9408 16.8452C84.8658 16.9191 84.7855 16.9516 84.6933 16.9516V17.2442C84.8693 17.2442 85.0236 17.1772 85.1498 17.0521L84.9408 16.8452ZM84.6933 16.9516C84.5863 16.9516 84.501 16.9166 84.4291 16.8452L84.22 17.0521C84.3487 17.1797 84.5099 17.2442 84.6933 17.2442V16.9516ZM84.435 16.8515C84.3694 16.7786 84.3384 16.6971 84.3384 16.6004H84.0426C84.0426 16.7691 84.1007 16.9197 84.2141 17.0459L84.435 16.8515ZM84.3384 16.6004V14.627H84.0426V16.6004H84.3384ZM84.2536 14.7593L84.5385 14.6267L84.4123 14.3619L84.1274 14.4946L84.2536 14.7593ZM84.3275 14.4943C84.3275 14.7749 84.2467 15.0659 84.0776 15.3688L84.3369 15.5102C84.5252 15.1719 84.6233 14.8327 84.6233 14.4943H84.3275ZM84.0756 15.3723C83.9169 15.6761 83.6936 15.9614 83.4027 16.2277L83.6038 16.4424C83.9164 16.156 84.1619 15.8442 84.3384 15.5068L84.0756 15.3723ZM83.4027 16.2277C83.1143 16.4918 82.7712 16.7098 82.3719 16.8807L82.4892 17.1493C82.9166 16.9665 83.2883 16.7311 83.6038 16.4424L83.4027 16.2277ZM82.3734 16.8799C81.9908 17.0378 81.5743 17.1174 81.1232 17.1174V17.4101C81.6103 17.4101 82.0658 17.3239 82.4873 17.1501L82.3734 16.8799ZM81.1232 17.1174C80.3902 17.1174 79.737 16.9313 79.1588 16.5606L78.9981 16.8061C79.6266 17.2093 80.3365 17.4101 81.1232 17.4101V17.1174ZM79.1597 16.5612C78.5909 16.1893 78.1378 15.6786 77.8021 15.025L77.5384 15.1576C77.8958 15.8528 78.3814 16.4035 78.9971 16.8054L79.1597 16.5612ZM77.8031 15.0267C77.4792 14.3747 77.3156 13.6398 77.3156 12.8193H77.0198C77.0198 13.6793 77.1913 14.4591 77.5379 15.1559L77.8031 15.0267ZM77.3156 12.8193C77.3156 11.9766 77.4846 11.2435 77.8179 10.6154L77.5561 10.4793C77.1968 11.1559 77.0198 11.9373 77.0198 12.8193H77.3156ZM77.8179 10.6154C78.1536 9.97319 78.6061 9.47271 79.175 9.11167L79.0153 8.86535C78.3996 9.25609 77.9135 9.79487 77.5561 10.4793L77.8179 10.6154ZM79.175 9.11167C79.7419 8.7519 80.3843 8.571 81.1065 8.571V8.27834C80.3315 8.27834 79.633 8.47335 79.0153 8.86535L79.175 9.11167ZM81.1065 8.571C81.5694 8.571 81.9973 8.65079 82.3916 8.80902L82.503 8.53783C82.0702 8.36438 81.6044 8.27834 81.1065 8.27834V8.571ZM82.3931 8.80951C82.8018 8.96915 83.1542 9.18635 83.453 9.46056L83.6541 9.24614C83.3268 8.94544 82.9423 8.70937 82.5016 8.53734L82.3931 8.80951ZM83.453 9.46056C83.7512 9.73487 83.9795 10.0503 84.1387 10.4075L84.4093 10.2893C84.2334 9.89466 83.9814 9.54675 83.6541 9.24614L83.453 9.46056ZM84.1412 10.4122C84.3102 10.7576 84.3946 11.1172 84.3946 11.4926H84.6903C84.6903 11.0721 84.5957 10.6689 84.4074 10.2845L84.1412 10.4122ZM84.6282 11.3736L84.2762 11.1248L84.1042 11.363L84.4562 11.6117L84.6282 11.3736ZM84.3384 11.2439V9.13777H84.0426V11.2439H84.3384ZM84.3384 9.13777C84.3384 9.0268 84.3719 8.94062 84.435 8.87014L84.2141 8.67572C84.0983 8.80424 84.0426 8.9613 84.0426 9.13777H84.3384ZM84.4291 8.87638C84.501 8.80497 84.5863 8.77 84.6933 8.77V8.47735C84.5099 8.47735 84.3487 8.54187 84.22 8.66947L84.4291 8.87638ZM81.207 16.4814C81.8257 16.4814 82.3798 16.325 82.8639 16.0095L82.7012 15.7651C82.2689 16.0466 81.7725 16.1887 81.207 16.1887V16.4814ZM82.8659 16.0081C83.347 15.683 83.7212 15.2424 83.9883 14.6902L83.7216 14.5637C83.4752 15.0729 83.134 15.4725 82.6992 15.7665L82.8659 16.0081ZM83.9879 14.6913C84.2669 14.1276 84.4054 13.5027 84.4054 12.8193H84.1096C84.1096 13.4626 83.9795 14.0428 83.7221 14.5626L83.9879 14.6913ZM84.4054 12.8193C84.4054 12.1467 84.2669 11.5375 83.9869 10.9949L83.7236 11.128C83.98 11.6247 84.1096 12.1874 84.1096 12.8193H84.4054ZM83.9879 10.9971C83.7202 10.4561 83.3465 10.0215 82.8659 9.69688L82.6992 9.93851C83.135 10.233 83.4762 10.6277 83.7221 11.1258L83.9879 10.9971ZM82.8659 9.69688C82.3813 9.36955 81.8267 9.20703 81.207 9.20703V9.49968C81.7715 9.49968 82.2674 9.64674 82.6992 9.93851L82.8659 9.69688ZM81.207 9.20703C80.5987 9.20703 80.0456 9.36369 79.5517 9.678L79.7114 9.92422C80.156 9.64152 80.6529 9.49968 81.207 9.49968V9.20703ZM79.5502 9.67888C79.069 9.99236 78.689 10.4213 78.4104 10.9617L78.6737 11.0948C78.931 10.5961 79.2776 10.2069 79.7129 9.92334L79.5502 9.67888ZM78.409 10.964C78.1408 11.5067 78.0087 12.1263 78.0087 12.8193H78.3045C78.3045 12.1636 78.4292 11.5892 78.6747 11.0926L78.409 10.964ZM78.0087 12.8193C78.0087 13.5018 78.1408 14.1259 78.408 14.6891L78.6757 14.5648C78.4292 14.0445 78.3045 13.4636 78.3045 12.8193H78.0087ZM78.4099 14.6924C78.688 15.2435 79.0676 15.6835 79.5482 16.0082L79.7148 15.7665C79.279 15.4721 78.932 15.0718 78.6742 14.5615L78.4099 14.6924ZM79.5502 16.0095C80.0343 16.325 80.5884 16.4814 81.207 16.4814V16.1887C80.6411 16.1887 80.1447 16.0466 79.7129 15.7651L79.5502 16.0095ZM93.6343 8.87235L93.5499 8.99281L93.5534 8.9951L93.6343 8.87235ZM94.5897 10.0664L94.4506 10.1172L94.452 10.1208L94.5897 10.0664ZM92.9471 9.68495L92.8632 9.8055L92.8652 9.80677L92.9471 9.68495ZM90.2821 9.68495L90.2145 9.5548L90.213 9.55553L90.2821 9.68495ZM87.9691 8.8226L87.8645 8.71922L87.8616 8.72225L87.8586 8.72547L87.9691 8.8226ZM88.6898 8.8226L88.5793 8.91988L88.5823 8.9231L88.5853 8.92613L88.6898 8.8226ZM88.8407 10.5639L88.9653 10.6427L88.9885 10.6067V10.564L88.8407 10.5639ZM88.4552 11.1609L88.3077 11.1519L88.2717 11.7166L88.5798 11.2397L88.4552 11.1609ZM88.7904 10.1493L88.6656 10.0711L88.6646 10.0722L88.7904 10.1493ZM89.5949 9.27036L89.6865 9.38511L89.689 9.38316L89.5949 9.27036ZM90.6676 8.65677L90.7188 8.79404L90.7213 8.79321L90.6676 8.65677ZM91.8743 8.571C92.5931 8.571 93.1472 8.71669 93.5499 8.99281L93.7185 8.7521C93.2497 8.4312 92.6305 8.27834 91.8743 8.27834V8.571ZM93.5534 8.9951C93.9729 9.26487 94.2711 9.63728 94.4506 10.1172L94.7281 10.0157C94.5275 9.47851 94.1893 9.05485 93.7146 8.74976L93.5534 8.9951ZM94.452 10.1208C94.6453 10.5988 94.7434 11.1329 94.7434 11.7248H95.0392C95.0392 11.1006 94.9356 10.5291 94.7271 10.0121L94.452 10.1208ZM94.7434 11.7248V16.6004H95.0392V11.7248H94.7434ZM94.7434 16.6004C94.7434 16.6917 94.7103 16.7713 94.6359 16.8452L94.8449 17.0521C94.9716 16.9271 95.0392 16.7744 95.0392 16.6004H94.7434ZM94.6359 16.8452C94.561 16.9191 94.4806 16.9516 94.3885 16.9516V17.2442C94.5644 17.2442 94.7187 17.1772 94.8449 17.0521L94.6359 16.8452ZM94.3885 16.9516C94.2667 16.9516 94.1868 16.9145 94.1301 16.8515L93.9093 17.0459C94.031 17.1818 94.1972 17.2442 94.3885 17.2442V16.9516ZM94.1301 16.8515C94.065 16.7786 94.0335 16.6971 94.0335 16.6004H93.7377C93.7377 16.7691 93.7959 16.9197 93.9093 17.0459L94.1301 16.8515ZM94.0335 16.6004V11.7746H93.7377V16.6004H94.0335ZM94.0335 11.7746C94.0335 11.3163 93.9581 10.8943 93.8053 10.5103L93.5302 10.6176C93.6677 10.9633 93.7377 11.3484 93.7377 11.7746H94.0335ZM93.8053 10.5103C93.649 10.1172 93.3887 9.80067 93.0289 9.56328L92.8652 9.80677C93.1758 10.0116 93.3961 10.281 93.5302 10.6176L93.8053 10.5103ZM93.0308 9.56455C92.6749 9.3215 92.212 9.20703 91.6564 9.20703V9.49968C92.1736 9.49968 92.5714 9.60635 92.8632 9.8055L93.0308 9.56455ZM91.6564 9.20703C91.1521 9.20703 90.671 9.32326 90.2145 9.5548L90.3496 9.81521C90.7647 9.6045 91.1999 9.49968 91.6564 9.49968V9.20703ZM90.213 9.55553C89.7694 9.78653 89.4055 10.094 89.1231 10.4779L89.3627 10.65C89.6165 10.3043 89.9453 10.0258 90.3511 9.81453L90.213 9.55553ZM89.1231 10.4779C88.8372 10.8672 88.6927 11.3008 88.6927 11.7746H88.9885C88.9885 11.3639 89.1122 10.9904 89.3627 10.65L89.1231 10.4779ZM88.6927 11.7746V16.6004H88.9885V11.7746H88.6927ZM88.6927 16.6004C88.6927 16.6917 88.6597 16.7713 88.5853 16.8452L88.7943 17.0521C88.921 16.9271 88.9885 16.7744 88.9885 16.6004H88.6927ZM88.5853 16.8452C88.5103 16.9191 88.43 16.9516 88.3378 16.9516V17.2442C88.5138 17.2442 88.6681 17.1772 88.7943 17.0521L88.5853 16.8452ZM88.3378 16.9516C88.216 16.9516 88.1362 16.9145 88.0795 16.8515L87.8586 17.0459C87.9804 17.1818 88.1465 17.2442 88.3378 17.2442V16.9516ZM88.0795 16.8515C88.0139 16.7786 87.9829 16.6971 87.9829 16.6004H87.6871C87.6871 16.7691 87.7452 16.9197 87.8586 17.0459L88.0795 16.8515ZM87.9829 16.6004V9.17093H87.6871V16.6004H87.9829ZM87.9829 9.17093C87.9829 9.07426 88.0139 8.99271 88.0795 8.91988L87.8586 8.72547C87.7452 8.85165 87.6871 9.00227 87.6871 9.17093H87.9829ZM88.0736 8.92613C88.146 8.85472 88.2308 8.81975 88.3378 8.81975V8.5271C88.1544 8.5271 87.9932 8.59163 87.8645 8.71922L88.0736 8.92613ZM88.3378 8.81975C88.4447 8.81975 88.5202 8.85433 88.5793 8.91988L88.8002 8.72547C88.6804 8.59202 88.5217 8.5271 88.3378 8.5271V8.81975ZM88.5853 8.92613C88.6597 9.00007 88.6927 9.07963 88.6927 9.17093H88.9885C88.9885 8.9969 88.921 8.84428 88.7943 8.71922L88.5853 8.92613ZM88.6927 9.17093V10.564H88.9885V9.17093H88.6927ZM88.7159 10.4852L88.3304 11.0822L88.5798 11.2397L88.9653 10.6427L88.7159 10.4852ZM88.6025 11.1701C88.6232 10.842 88.7267 10.528 88.916 10.2265L88.6646 10.0722C88.4517 10.412 88.3314 10.7724 88.3077 11.1519L88.6025 11.1701ZM88.9151 10.2277C89.1182 9.91042 89.375 9.62967 89.6865 9.38511L89.5032 9.15576C89.1665 9.41983 88.8869 9.72497 88.6656 10.0711L88.9151 10.2277ZM89.689 9.38316C90.0006 9.12821 90.3437 8.93203 90.7188 8.79404L90.6163 8.51968C90.2091 8.66918 89.8374 8.88199 89.5007 9.15772L89.689 9.38316ZM90.7213 8.79321C91.1078 8.64455 91.4918 8.571 91.8743 8.571V8.27834C91.4523 8.27834 91.0318 8.3596 90.6138 8.52046L90.7213 8.79321Z" fill="white"/>
  <path d="M11.8784 17.2688C13.9752 15.2211 16.0761 13.1763 18.1576 11.1136C19.3279 9.95495 19.9953 8.3128 19.9187 6.6796C19.8799 5.24664 19.2871 3.84476 18.2933 2.7964C17.1801 1.68387 15.6434 0.959888 14.0436 0.921873C13.7244 0.910089 13.4058 0.926796 13.0906 0.966829C12.843 0.689747 12.4806 0.513956 12.0756 0.513956C11.9411 0.513956 11.8114 0.533812 11.6889 0.569729C11.1313 0.733089 10.7246 1.23955 10.7246 1.83981C10.7246 2.44006 11.1313 2.94652 11.6889 3.1098C11.8114 3.14572 11.9411 3.16566 12.0756 3.16566C12.7241 3.16566 13.2655 2.7169 13.3961 2.11866C14.7189 2.0064 16.0931 2.40891 17.073 3.30408C18.131 4.21628 18.7769 5.59314 18.7188 6.98194C18.7372 8.25872 18.1301 9.49837 17.2025 10.3765C15.0282 12.5164 12.8477 14.6483 10.6754 16.7902C10.503 16.9443 10.3887 17.1536 10.407 17.3879C10.406 18.5555 10.3979 19.7241 10.4121 20.8916C10.3887 21.2001 10.6591 21.5104 10.9835 21.4804C11.3059 21.4965 11.5243 21.2301 11.7375 21.0359C12.4528 20.3028 13.2007 19.6009 13.9262 18.878C14.6813 18.1169 15.4864 17.4 16.169 16.5739C17.0974 15.3663 17.6679 13.8933 17.7576 12.3792C17.3331 12.6736 16.9975 13.0652 16.6261 13.4166C16.17 13.8061 16.1158 14.435 15.8199 14.9257C15.3098 16.0001 14.3568 16.7591 13.5334 17.5912C12.8978 18.2191 12.2529 18.8379 11.6254 19.4727C11.6213 18.8809 11.5988 18.2881 11.6223 17.6954C11.605 17.5101 11.7662 17.3929 11.8784 17.2688Z" fill="white"/>
  <path d="M13.7119 6.60838C15.0301 7.48152 15.974 8.85338 16.3739 10.3594C16.7086 10.054 17.0525 9.75258 17.3177 9.38414C16.9718 8.4068 16.3984 7.51857 15.7086 6.74156C14.6149 5.60304 13.1721 4.7839 11.6079 4.46355C9.97128 4.12908 8.2224 4.28825 6.70313 4.98624C5.01649 5.72621 3.63494 7.08999 2.87477 8.74022C2.78192 8.96452 2.62785 9.18986 2.65133 9.4412C2.89928 9.77163 3.19108 10.09 3.56555 10.2853C3.73392 9.78067 3.91961 9.27897 4.1798 8.81238C5.12871 7.08999 6.9337 5.85938 8.90097 5.55397C10.562 5.26357 12.3252 5.6731 13.7119 6.60838Z" fill="white"/>
  <path d="M9.39282 9.52397C10.4051 9.14349 11.5764 9.88943 11.7509 10.9088C11.86 11.5347 11.607 12.2096 11.0836 12.5921C10.2704 13.287 8.83776 13.0137 8.3684 12.0504C7.81947 11.1331 8.3684 9.8314 9.39282 9.52397ZM10.855 13.9409C11.555 13.7146 12.1672 13.2289 12.5232 12.5931C12.9569 11.8 13.0049 10.8007 12.6049 9.98555C12.061 8.82403 10.6631 8.12209 9.38673 8.41249C8.55213 8.5777 7.76643 9.09038 7.39094 9.85545C6.78384 10.9479 7.01441 12.4198 7.93786 13.274C8.69597 13.996 9.85001 14.2503 10.855 13.9409Z" fill="white"/>
  <path d="M9.24241 1.83874C9.24241 1.23849 8.83571 0.732023 8.27811 0.568665C8.15554 0.532747 8.02591 0.512892 7.89142 0.512892C7.48278 0.512892 7.11734 0.691668 6.86959 0.973028C5.56035 0.797237 4.199 1.07295 3.04743 1.70686C1.84855 2.40881 0.877146 3.49728 0.389441 4.78697C-0.13502 6.16884 -0.141157 7.74497 0.440457 9.11077C0.811868 10.1202 1.56182 10.9262 2.3281 11.6662C4.23103 13.5377 6.14212 15.4012 8.05324 17.2657C8.16649 17.3889 8.3277 17.507 8.30525 17.6933C8.32367 18.2641 8.31956 18.8358 8.29809 19.4066C7.30532 18.5554 6.42682 17.5841 5.47689 16.6879C4.6912 15.98 4.08511 15.0778 3.74637 14.0834C3.67698 13.8722 3.5719 13.6689 3.40558 13.5157C3.00458 13.1282 2.61277 12.7306 2.18218 12.3752C2.26279 14.2206 3.10455 16.005 4.42491 17.3138C5.66971 18.5635 6.94004 19.7891 8.19303 21.0318C8.42466 21.2421 8.67666 21.5354 9.02866 21.4793C9.32251 21.4573 9.53272 21.17 9.51644 20.8905C9.53988 19.8231 9.51233 18.7547 9.52763 17.6873C9.52154 17.3939 9.56126 17.0464 9.30318 16.8371C7.36758 14.9326 5.42586 13.0321 3.48824 11.1295C2.85767 10.4767 2.12198 9.88181 1.72711 9.04968C0.997558 7.67088 1.03123 5.93356 1.80669 4.57971C2.58421 3.20785 4.0739 2.22454 5.67992 2.11445C5.97622 2.0925 6.27564 2.09613 6.57275 2.12454C6.70604 2.71931 7.24537 3.16459 7.89142 3.16459C8.02591 3.16459 8.15554 3.14466 8.27811 3.10874C8.83571 2.94546 9.24241 2.43899 9.24241 1.83874Z" fill="white"/>
</svg>