<svg width="24" height="25" viewBox="0 0 24 25" fill="none" xmlns="http://www.w3.org/2000/svg">
<g id="help">
<mask id="mask0_5689_16590" style="mask-type:alpha" maskUnits="userSpaceOnUse" x="0" y="0" width="24" height="25">
<rect id="Bounding box" y="0.5" width="24" height="24" fill="#D9D9D9"/>
</mask>
<g mask="url(#mask0_5689_16590)">
<path id="help_2" d="M11.989 18.1153C12.2745 18.1153 12.5157 18.0168 12.7125 17.8196C12.9093 17.6225 13.0077 17.3811 13.0077 17.0956C13.0077 16.81 12.9091 16.5689 12.7119 16.3721C12.5148 16.1753 12.2734 16.0769 11.9879 16.0769C11.7024 16.0769 11.4612 16.1755 11.2644 16.3726C11.0676 16.5698 10.9692 16.8111 10.9692 17.0967C10.9692 17.3822 11.0678 17.6234 11.265 17.8202C11.4621 18.0169 11.7034 18.1153 11.989 18.1153ZM12.0016 22C10.6877 22 9.45268 21.7506 8.29655 21.252C7.1404 20.7533 6.13472 20.0765 5.2795 19.2217C4.42427 18.3669 3.74721 17.3616 3.24833 16.206C2.74944 15.0504 2.5 13.8156 2.5 12.5017C2.5 11.1877 2.74933 9.95268 3.248 8.79655C3.74667 7.6404 4.42342 6.63472 5.27825 5.7795C6.1331 4.92427 7.13834 4.24721 8.29398 3.74833C9.44959 3.24944 10.6844 3 11.9983 3C13.3122 3 14.5473 3.24933 15.7034 3.748C16.8596 4.24667 17.8652 4.92342 18.7205 5.77825C19.5757 6.6331 20.2527 7.63834 20.7516 8.79398C21.2505 9.94959 21.5 11.1844 21.5 12.4983C21.5 13.8122 21.2506 15.0473 20.752 16.2034C20.2533 17.3596 19.5765 18.3652 18.7217 19.2205C17.8669 20.0757 16.8616 20.7527 15.706 21.2516C14.5504 21.7505 13.3156 22 12.0016 22ZM12 20.5C14.2333 20.5 16.125 19.725 17.675 18.175C19.225 16.625 20 14.7333 20 12.5C20 10.2666 19.225 8.37498 17.675 6.82498C16.125 5.27498 14.2333 4.49998 12 4.49998C9.76664 4.49998 7.87498 5.27498 6.32498 6.82498C4.77498 8.37498 3.99998 10.2666 3.99998 12.5C3.99998 14.7333 4.77498 16.625 6.32498 18.175C7.87498 19.725 9.76664 20.5 12 20.5ZM12.081 8.2192C12.5424 8.2192 12.9416 8.36444 13.2788 8.65493C13.616 8.94541 13.7846 9.30851 13.7846 9.74423C13.7846 10.1109 13.6769 10.4391 13.4615 10.7288C13.2461 11.0186 13 11.2885 12.7231 11.5385C12.3601 11.8605 12.0405 12.2147 11.7643 12.6011C11.4881 12.9875 11.3404 13.4179 11.3211 13.8923C11.3147 14.0743 11.3788 14.2269 11.5135 14.35C11.6481 14.473 11.8051 14.5346 11.9846 14.5346C12.1769 14.5346 12.3397 14.4705 12.4731 14.3423C12.6064 14.2141 12.6916 14.057 12.7288 13.8711C12.7955 13.5275 12.9375 13.2215 13.1548 12.9529C13.3721 12.6843 13.6075 12.4289 13.861 12.1867C14.2254 11.8314 14.5435 11.4441 14.8153 11.0247C15.0871 10.6052 15.223 10.1374 15.223 9.62115C15.223 8.82885 14.9109 8.17789 14.2865 7.66828C13.6622 7.15866 12.9333 6.90385 12.1 6.90385C11.5051 6.90385 10.9442 7.03558 10.4173 7.29905C9.89038 7.5625 9.48013 7.94679 9.18653 8.45193C9.09551 8.60704 9.06629 8.77032 9.09888 8.94175C9.13146 9.11317 9.21943 9.24333 9.3628 9.33223C9.54528 9.43381 9.73268 9.4628 9.92498 9.4192C10.1173 9.37562 10.2807 9.26601 10.4154 9.09038C10.6179 8.82754 10.8631 8.61664 11.1509 8.45768C11.4387 8.29869 11.7488 8.2192 12.081 8.2192Z" fill="#EA5A52"/>
</g>
</g>
</svg>
