<svg width="32" height="32" viewBox="0 0 32 32" fill="none" xmlns="http://www.w3.org/2000/svg">
<g id="notifications">
<mask id="mask0_3671_8963" style="mask-type:alpha" maskUnits="userSpaceOnUse" x="0" y="0" width="32" height="32">
<rect id="Bounding box" width="32" height="32" fill="#D9D9D9"/>
</mask>
<g mask="url(#mask0_3671_8963)">
<path id="notifications_2" d="M7 25.1801C6.71667 25.1801 6.47917 25.0842 6.2875 24.8925C6.09583 24.7007 6 24.4631 6 24.1797C6 23.8962 6.09583 23.6588 6.2875 23.4673C6.47917 23.2759 6.71667 23.1802 7 23.1802H8.41027V13.2314C8.41027 11.4382 8.96368 9.85276 10.0705 8.47499C11.1773 7.09721 12.5983 6.21602 14.3333 5.83142V5.00065C14.3333 4.5377 14.4952 4.14419 14.819 3.82012C15.1428 3.49603 15.5359 3.33398 15.9985 3.33398C16.461 3.33398 16.8547 3.49603 17.1794 3.82012C17.5042 4.14419 17.6666 4.5377 17.6666 5.00065V5.83142C19.4016 6.21602 20.8226 7.09721 21.9294 8.47499C23.0363 9.85276 23.5897 11.4382 23.5897 13.2314V23.1802H24.9999C25.2833 23.1802 25.5208 23.276 25.7124 23.4678C25.9041 23.6595 25.9999 23.8971 25.9999 24.1806C25.9999 24.464 25.9041 24.7015 25.7124 24.8929C25.5208 25.0844 25.2833 25.1801 24.9999 25.1801H7ZM15.9977 28.9237C15.3343 28.9237 14.7671 28.6877 14.2961 28.2157C13.8252 27.7437 13.5897 27.1762 13.5897 26.5134H18.4102C18.4102 27.1784 18.174 27.7463 17.7015 28.2173C17.2291 28.6882 16.6611 28.9237 15.9977 28.9237ZM10.4102 23.1802H21.5897V13.2314C21.5897 11.6878 21.044 10.3703 19.9525 9.27882C18.8611 8.18735 17.5436 7.64162 16 7.64162C14.4564 7.64162 13.1388 8.18735 12.0474 9.27882C10.9559 10.3703 10.4102 11.6878 10.4102 13.2314V23.1802Z" fill="#E5E0F6"/>
</g>
</g>
</svg>
