<svg width="24" height="24" viewBox="0 0 24 24" fill="none" xmlns="http://www.w3.org/2000/svg">
<g id="State=More">
<mask id="mask0_86_1771" style="mask-type:alpha" maskUnits="userSpaceOnUse" x="0" y="0" width="24" height="24">
<rect id="Bounding box" width="24" height="24" fill="#D9D9D9"/>
</mask>
<g mask="url(#mask0_86_1771)">
<path id="steppers" d="M5.38667 14.6155C4.66082 14.6155 4.04308 14.3614 3.53347 13.8533C3.02385 13.3452 2.76904 12.7282 2.76904 12.0024C2.76904 11.2765 3.0231 10.6588 3.53122 10.1492C4.03932 9.63957 4.65629 9.38477 5.38214 9.38477C6.10801 9.38477 6.72574 9.63882 7.23534 10.1469C7.74496 10.655 7.99977 11.272 7.99977 11.9978C7.99977 12.7237 7.74572 13.3414 7.23762 13.8511C6.72952 14.3607 6.11253 14.6155 5.38667 14.6155ZM5.38374 13.1155C5.69958 13.1155 5.96454 13.0087 6.17864 12.795C6.39274 12.5814 6.49979 12.3166 6.49979 12.0008C6.49979 11.685 6.39297 11.42 6.17932 11.2059C5.96567 10.9918 5.70093 10.8847 5.38509 10.8847C5.06926 10.8847 4.80428 10.9915 4.59017 11.2052C4.37607 11.4189 4.26902 11.6836 4.26902 11.9994C4.26902 12.3153 4.37584 12.5802 4.58949 12.7943C4.80316 13.0085 5.06791 13.1155 5.38374 13.1155ZM12.002 14.6155C11.2762 14.6155 10.6584 14.3614 10.1488 13.8533C9.63922 13.3452 9.38442 12.7282 9.38442 12.0024C9.38442 11.2765 9.63847 10.6588 10.1466 10.1492C10.6547 9.63957 11.2716 9.38477 11.9975 9.38477C12.7234 9.38477 13.3411 9.63882 13.8507 10.1469C14.3603 10.655 14.6151 11.272 14.6151 11.9978C14.6151 12.7237 14.3611 13.3414 13.853 13.8511C13.3449 14.3607 12.7279 14.6155 12.002 14.6155ZM11.9991 13.1155C12.3149 13.1155 12.5799 13.0087 12.794 12.795C13.0081 12.5814 13.1152 12.3166 13.1152 12.0008C13.1152 11.685 13.0083 11.42 12.7947 11.2059C12.581 10.9918 12.3163 10.8847 12.0004 10.8847C11.6846 10.8847 11.4196 10.9915 11.2055 11.2052C10.9914 11.4189 10.8844 11.6836 10.8844 11.9994C10.8844 12.3153 10.9912 12.5802 11.2049 12.7943C11.4185 13.0085 11.6833 13.1155 11.9991 13.1155ZM18.6174 14.6155C17.8915 14.6155 17.2738 14.3614 16.7642 13.8533C16.2546 13.3452 15.9998 12.7282 15.9998 12.0024C15.9998 11.2765 16.2538 10.6588 16.7619 10.1492C17.27 9.63957 17.887 9.38477 18.6129 9.38477C19.3387 9.38477 19.9565 9.63882 20.4661 10.1469C20.9757 10.655 21.2305 11.272 21.2305 11.9978C21.2305 12.7237 20.9764 13.3414 20.4683 13.8511C19.9602 14.3607 19.3432 14.6155 18.6174 14.6155Z" fill="#7B63D1"/>
</g>
</g>
</svg>
