<svg width="24" height="24" viewBox="0 0 24 24" fill="none" xmlns="http://www.w3.org/2000/svg">
<g id="steppers">
<mask id="mask0_5152_10211" style="mask-type:alpha" maskUnits="userSpaceOnUse" x="0" y="0" width="24" height="24">
<rect id="Bounding box" width="24" height="24" fill="#D9D9D9"/>
</mask>
<g mask="url(#mask0_5152_10211)">
<path id="steppers_2" d="M5.38691 14.6155C4.66106 14.6155 4.04333 14.3614 3.53371 13.8533C3.0241 13.3452 2.76929 12.7282 2.76929 12.0024C2.76929 11.2765 3.02335 10.6588 3.53146 10.1492C4.03956 9.63957 4.65654 9.38477 5.38239 9.38477C6.10825 9.38477 6.72599 9.63882 7.23559 10.1469C7.7452 10.655 8.00001 11.272 8.00001 11.9978C8.00001 12.7237 7.74596 13.3414 7.23786 13.8511C6.72976 14.3607 6.11278 14.6155 5.38691 14.6155ZM5.38399 13.1155C5.69982 13.1155 5.96479 13.0087 6.17889 12.795C6.39299 12.5814 6.50004 12.3166 6.50004 12.0008C6.50004 11.685 6.39321 11.42 6.17956 11.2059C5.96591 10.9918 5.70117 10.8847 5.38534 10.8847C5.0695 10.8847 4.80453 10.9915 4.59041 11.2052C4.37631 11.4189 4.26926 11.6836 4.26926 11.9994C4.26926 12.3153 4.37609 12.5802 4.58974 12.7943C4.8034 13.0085 5.06815 13.1155 5.38399 13.1155ZM12.0023 14.6155C11.2764 14.6155 10.6587 14.3614 10.1491 13.8533C9.63946 13.3452 9.38466 12.7282 9.38466 12.0024C9.38466 11.2765 9.63871 10.6588 10.1468 10.1492C10.6549 9.63957 11.2719 9.38477 11.9977 9.38477C12.7236 9.38477 13.3413 9.63882 13.851 10.1469C14.3606 10.655 14.6154 11.272 14.6154 11.9978C14.6154 12.7237 14.3613 13.3414 13.8532 13.8511C13.3451 14.3607 12.7281 14.6155 12.0023 14.6155ZM11.9993 13.1155C12.3152 13.1155 12.5801 13.0087 12.7942 12.795C13.0084 12.5814 13.1154 12.3166 13.1154 12.0008C13.1154 11.685 13.0086 11.42 12.7949 11.2059C12.5813 10.9918 12.3165 10.8847 12.0007 10.8847C11.6849 10.8847 11.4199 10.9915 11.2058 11.2052C10.9917 11.4189 10.8846 11.6836 10.8846 11.9994C10.8846 12.3153 10.9914 12.5802 11.2051 12.7943C11.4188 13.0085 11.6835 13.1155 11.9993 13.1155ZM18.6176 14.6155C17.8918 14.6155 17.274 14.3614 16.7644 13.8533C16.2548 13.3452 16 12.7282 16 12.0024C16 11.2765 16.2541 10.6588 16.7622 10.1492C17.2703 9.63957 17.8872 9.38477 18.6131 9.38477C19.339 9.38477 19.9567 9.63882 20.4663 10.1469C20.9759 10.655 21.2307 11.272 21.2307 11.9978C21.2307 12.7237 20.9767 13.3414 20.4686 13.8511C19.9605 14.3607 19.3435 14.6155 18.6176 14.6155Z" fill="#47536F"/>
</g>
</g>
</svg>
