<svg width="32" height="32" viewBox="0 0 32 32" fill="none" xmlns="http://www.w3.org/2000/svg">
<g id="tune">
<mask id="mask0_3671_8960" style="mask-type:alpha" maskUnits="userSpaceOnUse" x="0" y="0" width="32" height="32">
<rect id="Bounding box" width="32" height="32" fill="#D9D9D9"/>
</mask>
<g mask="url(#mask0_3671_8960)">
<path id="tune_2" d="M15.9997 27.6673C15.7162 27.6673 15.4788 27.5714 15.2873 27.3798C15.0959 27.1881 15.0002 26.9506 15.0002 26.6673V21.334C15.0002 21.0506 15.096 20.8131 15.2878 20.6215C15.4795 20.4298 15.7171 20.334 16.0006 20.334C16.284 20.334 16.5215 20.4298 16.7129 20.6215C16.9044 20.8131 17.0001 21.0506 17.0001 21.334V23.0007H26.6668C26.9501 23.0007 27.1876 23.0965 27.3793 23.2883C27.5709 23.48 27.6668 23.7176 27.6668 24.0011C27.6668 24.2845 27.5709 24.522 27.3793 24.7134C27.1876 24.9049 26.9501 25.0006 26.6668 25.0006H17.0001V26.6673C17.0001 26.9506 16.9042 27.1881 16.7125 27.3798C16.5207 27.5714 16.2831 27.6673 15.9997 27.6673ZM5.33346 25.0006C5.05013 25.0006 4.81264 24.9047 4.621 24.713C4.42933 24.5212 4.3335 24.2836 4.3335 24.0002C4.3335 23.7167 4.42933 23.4793 4.621 23.2878C4.81264 23.0964 5.05013 23.0007 5.33346 23.0007H10.6668C10.9501 23.0007 11.1876 23.0965 11.3793 23.2883C11.5709 23.48 11.6668 23.7176 11.6668 24.0011C11.6668 24.2845 11.5709 24.522 11.3793 24.7134C11.1876 24.9049 10.9501 25.0006 10.6668 25.0006H5.33346ZM10.6664 19.6673C10.3829 19.6673 10.1454 19.5714 9.954 19.3798C9.76255 19.1881 9.66683 18.9506 9.66683 18.6673V17.0006H5.33346C5.05013 17.0006 4.81264 16.9047 4.621 16.713C4.42933 16.5212 4.3335 16.2836 4.3335 16.0002C4.3335 15.7167 4.42933 15.4793 4.621 15.2878C4.81264 15.0964 5.05013 15.0007 5.33346 15.0007H9.66683V13.334C9.66683 13.0506 9.7627 12.8131 9.95443 12.6215C10.1462 12.4298 10.3838 12.334 10.6672 12.334C10.9507 12.334 11.1882 12.4298 11.3796 12.6215C11.571 12.8131 11.6668 13.0506 11.6668 13.334V18.6673C11.6668 18.9506 11.5709 19.1881 11.3792 19.3798C11.1874 19.5714 10.9498 19.6673 10.6664 19.6673ZM16.0001 17.0006C15.7168 17.0006 15.4793 16.9047 15.2877 16.713C15.096 16.5212 15.0002 16.2836 15.0002 16.0002C15.0002 15.7167 15.096 15.4793 15.2877 15.2878C15.4793 15.0964 15.7168 15.0007 16.0001 15.0007H26.6668C26.9501 15.0007 27.1876 15.0965 27.3793 15.2883C27.5709 15.48 27.6668 15.7176 27.6668 16.0011C27.6668 16.2845 27.5709 16.522 27.3793 16.7134C27.1876 16.9049 26.9501 17.0006 26.6668 17.0006H16.0001ZM21.333 11.6673C21.0496 11.6673 20.8121 11.5714 20.6207 11.3798C20.4292 11.1881 20.3335 10.9506 20.3335 10.6673V5.33395C20.3335 5.05062 20.4294 4.81312 20.6211 4.62145C20.8129 4.42981 21.0505 4.33398 21.3339 4.33398C21.6174 4.33398 21.8548 4.42981 22.0463 4.62145C22.2377 4.81312 22.3334 5.05062 22.3334 5.33395V7.00065H26.6668C26.9501 7.00065 27.1876 7.09652 27.3793 7.28825C27.5709 7.48001 27.6668 7.71761 27.6668 8.00105C27.6668 8.28452 27.5709 8.52197 27.3793 8.71342C27.1876 8.90486 26.9501 9.00059 26.6668 9.00059H22.3334V10.6673C22.3334 10.9506 22.2376 11.1881 22.0458 11.3798C21.8541 11.5714 21.6165 11.6673 21.333 11.6673ZM5.33346 9.00059C5.05013 9.00059 4.81264 8.90472 4.621 8.71298C4.42933 8.52123 4.3335 8.28363 4.3335 8.00019C4.3335 7.71672 4.42933 7.47926 4.621 7.28782C4.81264 7.09637 5.05013 7.00065 5.33346 7.00065H16.0001C16.2835 7.00065 16.521 7.09652 16.7126 7.28825C16.9043 7.48001 17.0001 7.71761 17.0001 8.00105C17.0001 8.28452 16.9043 8.52197 16.7126 8.71342C16.521 8.90486 16.2835 9.00059 16.0001 9.00059H5.33346Z" fill="#E5E0F6"/>
</g>
</g>
</svg>
