<svg width="235" height="48" viewBox="0 0 235 48" fill="none" xmlns="http://www.w3.org/2000/svg">
<g id="Vector">
<path d="M78.7777 10.4352V37.2H75.2833V25.0656H61.6513V37.2H58.1569V10.4352H61.6513V22.1856H75.2833V10.4352H78.7777Z" fill="#4C9EAA"/>
<path d="M103.944 25.872C103.944 26.5376 103.906 27.2416 103.829 27.984H87.01C87.138 30.0576 87.842 31.6832 89.122 32.8608C90.4276 34.0128 92.002 34.5888 93.8452 34.5888C95.3556 34.5888 96.61 34.2432 97.6084 33.552C98.6324 32.8352 99.3492 31.888 99.7588 30.7104H103.522C102.959 32.7328 101.832 34.384 100.143 35.664C98.4532 36.9184 96.354 37.5456 93.8452 37.5456C91.8484 37.5456 90.0564 37.0976 88.4692 36.2016C86.9076 35.3056 85.6788 34.0384 84.7828 32.4C83.8868 30.736 83.4388 28.816 83.4388 26.64C83.4388 24.464 83.874 22.5568 84.7444 20.9184C85.6148 19.28 86.8308 18.0256 88.3924 17.1552C89.9796 16.2592 91.7972 15.8112 93.8452 15.8112C95.842 15.8112 97.6084 16.2464 99.1444 17.1168C100.68 17.9872 101.858 19.1904 102.677 20.7264C103.522 22.2368 103.944 23.952 103.944 25.872ZM100.335 25.1424C100.335 23.8112 100.04 22.672 99.4516 21.7248C98.8628 20.752 98.0564 20.0224 97.0324 19.536C96.034 19.024 94.9204 18.768 93.6916 18.768C91.9252 18.768 90.4148 19.3312 89.1604 20.4576C87.9316 21.584 87.2276 23.1456 87.0484 25.1424H100.335Z" fill="#4C9EAA"/>
<path d="M107.251 26.6016C107.251 24.4512 107.687 22.5696 108.557 20.9568C109.427 19.3184 110.618 18.0512 112.128 17.1552C113.664 16.2592 115.367 15.8112 117.235 15.8112C119.079 15.8112 120.679 16.208 122.035 17.0016C123.392 17.7952 124.403 18.7936 125.069 19.9968V16.1568H128.602V37.2H125.069V33.2832C124.378 34.512 123.341 35.536 121.959 36.3552C120.602 37.1488 119.015 37.5456 117.197 37.5456C115.328 37.5456 113.639 37.0848 112.128 36.1632C110.618 35.2416 109.427 33.9488 108.557 32.2848C107.687 30.6208 107.251 28.7264 107.251 26.6016ZM125.069 26.64C125.069 25.0528 124.749 23.6704 124.109 22.4928C123.469 21.3152 122.599 20.4192 121.498 19.8048C120.423 19.1648 119.232 18.8448 117.927 18.8448C116.621 18.8448 115.431 19.152 114.355 19.7664C113.28 20.3808 112.423 21.2768 111.783 22.4544C111.143 23.632 110.823 25.0144 110.823 26.6016C110.823 28.2144 111.143 29.6224 111.783 30.8256C112.423 32.0032 113.28 32.912 114.355 33.552C115.431 34.1664 116.621 34.4736 117.927 34.4736C119.232 34.4736 120.423 34.1664 121.498 33.552C122.599 32.912 123.469 32.0032 124.109 30.8256C124.749 29.6224 125.069 28.2272 125.069 26.64Z" fill="#4C9EAA"/>
<path d="M138.001 8.784V37.2H134.507V8.784H138.001Z" fill="#4C9EAA"/>
<path d="M151.407 37.5456C149.794 37.5456 148.347 37.2768 147.067 36.7392C145.787 36.176 144.776 35.408 144.034 34.4352C143.291 33.4368 142.882 32.2976 142.805 31.0176H146.415C146.517 32.0672 147.003 32.9248 147.874 33.5904C148.77 34.256 149.935 34.5888 151.368 34.5888C152.699 34.5888 153.749 34.2944 154.517 33.7056C155.285 33.1168 155.669 32.3744 155.669 31.4784C155.669 30.5568 155.259 29.8784 154.44 29.4432C153.621 28.9824 152.354 28.5344 150.639 28.0992C149.077 27.6896 147.797 27.28 146.799 26.8704C145.826 26.4352 144.981 25.808 144.264 24.9888C143.573 24.144 143.227 23.0432 143.227 21.6864C143.227 20.6112 143.547 19.6256 144.187 18.7296C144.827 17.8336 145.736 17.1296 146.914 16.6176C148.091 16.08 149.435 15.8112 150.946 15.8112C153.275 15.8112 155.157 16.4 156.59 17.5776C158.024 18.7552 158.792 20.368 158.895 22.416H155.4C155.323 21.3152 154.875 20.432 154.056 19.7664C153.263 19.1008 152.187 18.768 150.831 18.768C149.576 18.768 148.578 19.0368 147.835 19.5744C147.093 20.112 146.722 20.816 146.722 21.6864C146.722 22.3776 146.939 22.9536 147.375 23.4144C147.835 23.8496 148.399 24.208 149.064 24.4896C149.755 24.7456 150.703 25.04 151.906 25.3728C153.416 25.7824 154.645 26.192 155.592 26.6016C156.539 26.9856 157.346 27.5744 158.011 28.368C158.703 29.1616 159.061 30.1984 159.087 31.4784C159.087 32.6304 158.767 33.6672 158.127 34.5888C157.487 35.5104 156.578 36.24 155.4 36.7776C154.248 37.2896 152.917 37.5456 151.407 37.5456Z" fill="#4C9EAA"/>
<path d="M167.514 20.0352C168.205 18.832 169.229 17.8336 170.586 17.04C171.968 16.2208 173.568 15.8112 175.386 15.8112C177.255 15.8112 178.944 16.2592 180.455 17.1552C181.991 18.0512 183.194 19.3184 184.064 20.9568C184.935 22.5696 185.37 24.4512 185.37 26.6016C185.37 28.7264 184.935 30.6208 184.064 32.2848C183.194 33.9488 181.991 35.2416 180.455 36.1632C178.944 37.0848 177.255 37.5456 175.386 37.5456C173.594 37.5456 172.007 37.1488 170.624 36.3552C169.267 35.536 168.231 34.5248 167.514 33.3216V47.184H164.019V16.1568H167.514V20.0352ZM181.799 26.6016C181.799 25.0144 181.479 23.632 180.839 22.4544C180.199 21.2768 179.328 20.3808 178.227 19.7664C177.152 19.152 175.962 18.8448 174.656 18.8448C173.376 18.8448 172.186 19.1648 171.085 19.8048C170.01 20.4192 169.139 21.328 168.474 22.5312C167.834 23.7088 167.514 25.0784 167.514 26.64C167.514 28.2272 167.834 29.6224 168.474 30.8256C169.139 32.0032 170.01 32.912 171.085 33.552C172.186 34.1664 173.376 34.4736 174.656 34.4736C175.962 34.4736 177.152 34.1664 178.227 33.552C179.328 32.912 180.199 32.0032 180.839 30.8256C181.479 29.6224 181.799 28.2144 181.799 26.6016Z" fill="#4C9EAA"/>
<path d="M188.664 26.6016C188.664 24.4512 189.099 22.5696 189.969 20.9568C190.84 19.3184 192.03 18.0512 193.541 17.1552C195.077 16.2592 196.779 15.8112 198.648 15.8112C200.491 15.8112 202.091 16.208 203.448 17.0016C204.805 17.7952 205.816 18.7936 206.481 19.9968V16.1568H210.014V37.2H206.481V33.2832C205.79 34.512 204.753 35.536 203.371 36.3552C202.014 37.1488 200.427 37.5456 198.609 37.5456C196.741 37.5456 195.051 37.0848 193.541 36.1632C192.03 35.2416 190.84 33.9488 189.969 32.2848C189.099 30.6208 188.664 28.7264 188.664 26.6016ZM206.481 26.64C206.481 25.0528 206.161 23.6704 205.521 22.4928C204.881 21.3152 204.011 20.4192 202.91 19.8048C201.835 19.1648 200.645 18.8448 199.339 18.8448C198.033 18.8448 196.843 19.152 195.768 19.7664C194.693 20.3808 193.835 21.2768 193.195 22.4544C192.555 23.632 192.235 25.0144 192.235 26.6016C192.235 28.2144 192.555 29.6224 193.195 30.8256C193.835 32.0032 194.693 32.912 195.768 33.552C196.843 34.1664 198.033 34.4736 199.339 34.4736C200.645 34.4736 201.835 34.1664 202.91 33.552C204.011 32.912 204.881 32.0032 205.521 30.8256C206.161 29.6224 206.481 28.2272 206.481 26.64Z" fill="#4C9EAA"/>
<path d="M226.172 15.7728C228.732 15.7728 230.806 16.5536 232.393 18.1152C233.98 19.6512 234.774 21.8784 234.774 24.7968V37.2H231.318V25.296C231.318 23.1968 230.793 21.5968 229.743 20.496C228.694 19.3696 227.26 18.8064 225.443 18.8064C223.599 18.8064 222.127 19.3824 221.027 20.5344C219.951 21.6864 219.414 23.3632 219.414 25.5648V37.2H215.919V16.1568H219.414V19.152C220.105 18.0768 221.039 17.2448 222.217 16.656C223.42 16.0672 224.739 15.7728 226.172 15.7728Z" fill="#4C9EAA"/>
<path d="M27.1855 38.3452C31.9843 33.6588 36.7924 28.9792 41.5561 24.2583C44.2345 21.6067 45.7617 17.8485 45.5865 14.1107C45.4979 10.8313 44.141 7.62291 41.8667 5.22362C39.3189 2.67748 35.8022 1.02056 32.1407 0.933561C31.4102 0.906592 30.6812 0.94483 29.9597 1.03645C29.393 0.402316 28.5637 0 27.6367 0C27.329 0 27.0321 0.0454433 26.7517 0.127642C25.4755 0.50151 24.5448 1.66061 24.5448 3.03435C24.5448 4.40809 25.4755 5.56719 26.7517 5.94088C27.0321 6.02307 27.329 6.0687 27.6367 6.0687C29.121 6.0687 30.3601 5.04167 30.6588 3.67255C33.6862 3.41561 36.8312 4.33679 39.0738 6.38549C41.4953 8.47316 42.9734 11.6243 42.8403 14.8027C42.8825 17.7247 41.4931 20.5618 39.3703 22.5715C34.3941 27.4689 29.4039 32.3479 24.4322 37.2499C24.0377 37.6027 23.7761 38.0817 23.8181 38.6179C23.8158 41.29 23.7972 43.9645 23.8297 46.6365C23.7761 47.3424 24.3949 48.0527 25.1375 47.984C25.8753 48.0208 26.375 47.4112 26.8631 46.9666C28.5001 45.289 30.2118 43.6825 31.8721 42.028C33.6001 40.2862 35.4427 38.6454 37.0049 36.7548C39.1297 33.9911 40.4352 30.62 40.6406 27.1549C39.6692 27.8287 38.901 28.7248 38.051 29.5291C37.0072 30.4205 36.8833 31.8598 36.2061 32.9828C35.0385 35.4417 32.8576 37.1788 30.9731 39.0832C29.5184 40.5201 28.0425 41.9363 26.6064 43.3891C26.597 42.0348 26.5456 40.678 26.5994 39.3215C26.5597 38.8975 26.9286 38.6293 27.1855 38.3452Z" fill="#4C9EAA"/>
<path d="M31.3814 13.948C34.3984 15.9462 36.5584 19.0859 37.4738 22.5325C38.2396 21.8335 39.0268 21.1438 39.6338 20.3006C38.8421 18.0638 37.5298 16.031 35.9512 14.2527C33.4481 11.6471 30.1461 9.77243 26.5663 9.03929C22.8207 8.27382 18.8182 8.63808 15.3411 10.2355C11.4811 11.929 8.31927 15.0502 6.57953 18.8269C6.36704 19.3402 6.01443 19.856 6.06817 20.4312C6.63564 21.1874 7.30345 21.9161 8.16046 22.3629C8.54579 21.2081 8.97076 20.0599 9.56624 18.992C11.7379 15.0502 15.8688 12.2338 20.3711 11.5348C24.1727 10.8702 28.2078 11.8075 31.3814 13.948Z" fill="#4C9EAA"/>
<path d="M21.4964 20.619C23.8131 19.7482 26.4937 21.4554 26.8932 23.7884C27.1429 25.2206 26.5638 26.7653 25.3659 27.6406C23.5048 29.231 20.2261 28.6056 19.1519 26.401C17.8957 24.3017 19.1519 21.3226 21.4964 20.619ZM24.8428 30.7276C26.4448 30.2097 27.8459 29.0982 28.6607 27.643C29.6532 25.828 29.763 23.5408 28.8476 21.6754C27.6029 19.0171 24.4037 17.4106 21.4825 18.0752C19.5724 18.4534 17.7743 19.6267 16.9149 21.3776C15.5255 23.8778 16.0532 27.2464 18.1666 29.2013C19.9016 30.8536 22.5428 31.4357 24.8428 30.7276Z" fill="#4C9EAA"/>
<path d="M21.1522 3.0344C21.1522 1.66066 20.2215 0.501559 18.9453 0.127692C18.6648 0.0454924 18.3681 4.91165e-05 18.0604 4.91165e-05C17.1251 4.91165e-05 16.2888 0.409198 15.7218 1.05312C12.7255 0.650808 9.60987 1.2818 6.97438 2.73257C4.23061 4.33906 2.00744 6.83015 0.891277 9.78174C-0.309009 12.9443 -0.323052 16.5514 1.00803 19.6772C1.85805 21.9873 3.57439 23.8321 5.32809 25.5256C9.68316 29.8088 14.0569 34.0735 18.4307 38.3407C18.6899 38.6225 19.0588 38.893 19.0074 39.3193C19.0496 40.6255 19.0402 41.934 18.9911 43.2403C16.719 41.2922 14.7085 39.0694 12.5344 37.0183C10.7363 35.3981 9.34922 33.3333 8.57397 31.0576C8.41516 30.5743 8.17467 30.1089 7.79403 29.7583C6.8763 28.8715 5.97961 27.9616 4.99415 27.1481C5.17863 31.3716 7.1051 35.4554 10.1269 38.4508C12.9757 41.3107 15.883 44.1157 18.7506 46.9598C19.2807 47.441 19.8575 48.1124 20.663 47.984C21.3356 47.9336 21.8167 47.276 21.7794 46.6365C21.833 44.1936 21.77 41.7484 21.805 39.3055C21.7911 38.634 21.882 37.8388 21.2913 37.3598C16.8615 33.0011 12.4177 28.6515 7.98321 24.2974C6.54008 22.8032 4.85637 21.4418 3.95268 19.5374C2.28302 16.3819 2.36008 12.4058 4.1348 9.30739C5.91424 6.16776 9.32356 3.91735 12.9991 3.66539C13.6772 3.61515 14.3625 3.62346 15.0424 3.68848C15.3475 5.04966 16.5818 6.06875 18.0604 6.06875C18.3681 6.06875 18.6648 6.02312 18.9453 5.94092C20.2215 5.56724 21.1522 4.40814 21.1522 3.0344Z" fill="#4C9EAA"/>
</g>
</svg>
